<svg width="24" height="24" viewBox="0 0 24 24" fill="none" xmlns="http://www.w3.org/2000/svg">
<path id="Vector" d="M11.19 18H12.99V13.02H18V11.22H12.99V6H11.19V11.22H6V13.02H11.19V18ZM12 24C10.36 24 8.81 23.685 7.35 23.055C5.89 22.425 4.615 21.565 3.525 20.475C2.435 19.385 1.575 18.11 0.945 16.65C0.315 15.19 0 13.63 0 11.97C0 10.33 0.315 8.78 0.945 7.32C1.575 5.86 2.435 4.59 3.525 3.51C4.615 2.43 5.89 1.575 7.35 0.945C8.81 0.315 10.37 0 12.03 0C13.67 0 15.22 0.315 16.68 0.945C18.14 1.575 19.41 2.43 20.49 3.51C21.57 4.59 22.425 5.86 23.055 7.32C23.685 8.78 24 10.34 24 12C24 13.64 23.685 15.19 23.055 16.65C22.425 18.11 21.57 19.385 20.49 20.475C19.41 21.565 18.14 22.425 16.68 23.055C15.22 23.685 13.66 24 12 24ZM12.03 22.2C14.85 22.2 17.25 21.205 19.23 19.215C21.21 17.225 22.2 14.81 22.2 11.97C22.2 9.15 21.21 6.75 19.23 4.77C17.25 2.79 14.84 1.8 12 1.8C9.18 1.8 6.775 2.79 4.785 4.77C2.795 6.75 1.8 9.16 1.8 12C1.8 14.82 2.795 17.225 4.785 19.215C6.775 21.205 9.19 22.2 12.03 22.2Z" fill="#26D7A4"/>
</svg>
