<svg width="13" height="26" viewBox="0 0 13 26" fill="none" xmlns="http://www.w3.org/2000/svg">
<path d="M0.461516 1.05029C0.166008 1.40274 0 1.88071 0 2.37909C0 2.87746 0.166008 3.35543 0.461516 3.70788L8.26414 13.0113L0.461516 22.3148C0.174382 22.6693 0.0155008 23.144 0.0190922 23.6368C0.0226837 24.1296 0.188461 24.601 0.480717 24.9495C0.772974 25.298 1.16833 25.4956 1.58162 25.4999C1.99492 25.5042 2.3931 25.3148 2.69039 24.9724L11.6075 14.3401C11.903 13.9877 12.069 13.5097 12.069 13.0113C12.069 12.513 11.903 12.035 11.6075 11.6825L2.69039 1.05029C2.39479 0.697939 1.99393 0.5 1.57595 0.5C1.15798 0.5 0.757114 0.697939 0.461516 1.05029Z" fill="#8A939B"/>
</svg>
