<svg width="24" height="33" viewBox="0 0 24 33" fill="none" xmlns="http://www.w3.org/2000/svg">
<g id="Frame 289250">
<path id="Vector" d="M15.2123 7.97494C13.9316 7.28331 12.5345 6.9375 11.0209 6.9375C9.50738 6.9375 8.11027 7.28331 6.82958 7.97494C5.54889 8.66657 4.61749 9.70401 3.91893 10.8567C3.22037 12.1247 2.87109 13.508 2.87109 15.1218C2.87109 16.7356 3.22037 18.2341 3.91893 19.3868C4.61749 20.6548 5.66532 21.577 6.82958 22.2686C8.11027 22.9602 9.50738 23.306 11.0209 23.306C12.5345 23.306 13.9316 22.9602 15.2123 22.2686C16.4929 21.577 17.4243 20.5395 18.1229 19.3868C18.8215 18.1188 19.1707 16.7356 19.1707 15.1218C19.1707 13.508 18.8215 12.0094 18.1229 10.8567C17.4243 9.70401 16.3765 8.66657 15.2123 7.97494ZM13.1166 19.1563C12.5345 19.5021 11.8359 19.7326 11.0209 19.7326C10.2059 19.7326 9.6238 19.5021 8.92524 19.1563C8.34311 18.8105 7.76099 18.2341 7.41171 17.5425C7.06243 16.8508 6.82958 16.0439 6.82958 15.1218C6.82958 14.1996 7.06243 13.3927 7.41171 12.7011C7.76099 12.0094 8.34311 11.5484 8.92524 11.0873C9.50737 10.7415 10.2059 10.5109 11.0209 10.5109C11.7195 10.5109 12.418 10.7415 13.1166 11.0873C13.6987 11.4331 14.2808 12.0094 14.6301 12.7011C14.9794 13.3927 15.2123 14.1996 15.2123 15.1218C15.2123 16.0439 14.9794 16.8508 14.6301 17.5425C14.1644 18.2341 13.6987 18.8105 13.1166 19.1563Z" fill="#1081FB"/>
<path id="Vector_2" d="M15.9109 29.9913V31.9509C15.9109 32.1815 15.7945 32.2968 15.5616 32.2968H6.48038C6.24753 32.2968 6.1311 32.1815 6.1311 31.9509V29.9913C6.1311 29.7608 6.24753 29.6455 6.48038 29.6455H15.5616C15.7945 29.6455 15.9109 29.8761 15.9109 29.9913Z" fill="#26D7A4"/>
<path id="Vector_3" d="M16.1437 3.94017C15.4451 3.59435 14.6301 3.94017 14.3973 4.74707C14.2808 5.32343 14.5137 5.89978 15.0958 6.13033C18.9379 7.97467 21.3828 12.0092 20.9171 16.3895C20.335 21.1156 16.6094 24.689 12.0688 25.2654C11.4866 25.2654 10.7881 25.2654 10.2059 25.2654C9.97309 25.2654 9.74023 25.4959 9.74023 25.7265V28.2624C9.74023 28.493 9.97309 28.7235 10.2059 28.7235H12.0688C12.3016 28.7235 12.5345 28.493 12.5345 28.2624V27.5708C18.1229 26.8792 22.7799 22.3836 23.4785 16.62C23.9442 11.2023 20.9171 6.13033 16.1437 3.94017Z" fill="#26D7A4"/>
<path id="Vector_4" d="M5.19956 1.28894C6.59667 2.44165 7.29523 4.286 7.41165 6.59142C5.08313 6.82197 3.10389 6.36088 1.8232 5.0929C1.24107 4.63181 0.775367 4.05545 0.542514 3.36382C-0.388894 1.51948 1.3575 -0.555404 3.45317 0.136224C4.0353 0.482039 4.61743 0.827853 5.19956 1.28894Z" fill="#26D7A4"/>
<path id="Vector_5" d="M8.22666 2.32675C7.87738 3.47946 8.22667 4.86272 9.04165 6.1307C10.4388 5.3238 11.3702 4.40163 11.603 3.13365C11.7194 2.67256 11.7194 2.21148 11.7194 1.63512C11.4866 0.367133 9.7402 -0.0939527 8.80879 1.05876C8.57594 1.40458 8.34309 1.86566 8.22666 2.32675Z" fill="#26D7A4"/>
</g>
</svg>
