<svg width="29" height="30" viewBox="0 0 29 30" fill="none" xmlns="http://www.w3.org/2000/svg">
<g id="Frame 288976">
<path id="Vector" d="M24.7098 8.40137C25.0372 8.40271 25.3021 8.66947 25.3035 8.99916V14.3972C25.3045 14.7284 25.0388 14.9981 24.7098 14.9995H13.3905C13.2318 15.0003 13.0788 14.9374 12.9663 14.8241C12.8538 14.711 12.7908 14.5573 12.7913 14.3972V8.99916C12.7921 8.83981 12.8554 8.68715 12.9679 8.5752C13.0804 8.46298 13.2326 8.40057 13.3905 8.40137H24.7098ZM24.112 9.60123H13.9842V13.7996H24.112V9.60123Z" fill="#1081FB"/>
<path id="Vector_2" d="M18.1579 3.13858e-05C18.4869 0.00137049 18.7526 0.270801 18.7513 0.602099V2.39976H22.9204C23.0792 2.39896 23.2319 2.46243 23.3444 2.57572C23.4566 2.68901 23.5194 2.84301 23.5183 3.00317V4.80056H27.6875C28.0165 4.79922 28.2843 5.06677 28.2856 5.39807V29.3966C28.2864 29.5565 28.2239 29.7105 28.1114 29.8238C27.9992 29.9371 27.8465 30.0005 27.6875 30H10.4134C10.3966 29.9997 10.3799 29.9992 10.3634 29.9976C10.0525 29.9724 9.81365 29.7105 9.81525 29.3966V27.5989H5.64607C5.4873 27.5997 5.3349 27.5363 5.22266 27.4232C5.11042 27.3102 5.04739 27.1567 5.04819 26.9969V25.1992H0.879015C0.720768 25.1987 0.569435 25.1346 0.457998 25.0214C0.346828 24.9083 0.284586 24.7551 0.285656 24.5958V0.602068C0.284327 0.27077 0.550022 0.00133698 0.879015 0L18.1579 3.13858e-05ZM17.5587 1.19989H1.47678V23.9985H5.04782V3.00379C5.04675 2.84363 5.10952 2.68963 5.22176 2.57634C5.33426 2.46305 5.48692 2.39957 5.6457 2.40038H17.5587L17.5587 1.19989ZM22.3268 3.6007H6.23946V26.3994H9.81506V5.39843C9.81506 5.38156 9.81586 5.36495 9.81746 5.34808C9.84459 5.03767 10.1036 4.79984 10.4132 4.80091H22.3269L22.3268 3.6007ZM27.0942 6.00041H11.0062V28.7991H27.0942V6.00041Z" fill="#1081FB"/>
<path id="Vector_3" d="M24.7098 25.1997C25.0372 25.2011 25.3021 25.4678 25.3035 25.7975C25.304 25.9566 25.2418 26.1093 25.1306 26.2223C25.0192 26.3353 24.8678 26.399 24.7098 26.3996H13.3905C13.2318 26.4006 13.0788 26.3374 12.9663 26.2244C12.8538 26.1114 12.7908 25.9577 12.7913 25.7975C12.7921 25.6382 12.8554 25.4855 12.9679 25.3735C13.0804 25.2613 13.2326 25.1989 13.3905 25.1997L24.7098 25.1997Z" fill="#1081FB"/>
<path id="Vector_4" d="M24.7099 22.7979C25.0373 22.7992 25.3022 23.066 25.3035 23.3954C25.3041 23.5545 25.2418 23.7074 25.1306 23.8204C25.0192 23.9332 24.8679 23.9972 24.7099 23.9977H13.3906C13.2316 23.9988 13.0789 23.9356 12.9664 23.8223C12.8539 23.7093 12.7909 23.5555 12.7914 23.3954C12.7922 23.236 12.8555 23.0836 12.968 22.9714C13.0805 22.8595 13.2326 22.7971 13.3906 22.7979L24.7099 22.7979Z" fill="#1081FB"/>
</g>
</svg>
