<svg width="29" height="34" viewBox="0 0 29 34" fill="none" xmlns="http://www.w3.org/2000/svg">
<g id="Frame 288977">
<path id="Vector" d="M15.4248 3.79733C16.0159 3.81742 16.5957 3.84302 17.1827 3.94732C21.6466 4.74344 24.434 7.33536 25.7047 11.8736C26.0356 13.0367 26.052 13.8711 25.7642 14.6629C25.6757 14.9057 25.6451 15.1689 25.619 15.3988C25.482 16.5977 25.9415 17.4994 26.4094 18.2237C26.6779 18.6366 26.9838 19.0211 27.3078 19.4241C27.6192 19.8114 27.9278 20.2002 28.1964 20.6246C28.3113 20.8076 28.3155 21.0418 28.2075 21.2291C28.0692 21.4664 27.8961 21.6221 27.6912 21.7006L27.2635 21.8793C27.0781 21.9565 26.8939 22.0336 26.7071 22.0907C26.3306 22.208 26.1964 22.4536 26.2821 22.8553L26.3693 23.2139C26.4717 23.6282 26.5699 24.0184 26.5048 24.4099C26.4135 24.9673 26.3181 25.5431 26.1311 26.0861C25.8945 26.7706 25.8377 27.4007 25.9566 28.0138C26.0064 28.2609 25.9841 28.541 25.8915 28.8468C25.6479 29.6498 25.086 30.1285 24.1681 30.3115C22.8726 30.5687 21.5617 30.6988 20.2648 30.6988L19.891 30.6945C19.365 30.6945 19.2445 31.0347 19.1975 31.3289C19.0839 32.0719 18.9442 32.8092 18.7989 33.5438C18.7699 33.6924 18.684 33.8225 18.5609 33.9053C18.471 33.9668 18.363 33.9995 18.2564 33.9995C18.2191 33.9995 18.1816 33.9967 18.1443 33.988C18.0335 33.9636 17.9492 33.9395 17.8688 33.9151C17.7399 33.8794 17.6127 33.8421 17.4797 33.8165L8.05481 31.9518C7.8071 31.9033 7.62288 31.6875 7.60643 31.4289C7.54965 30.5658 7.47898 29.7013 7.38629 28.8396C7.15364 26.6718 6.67492 24.8671 5.9232 23.3225C5.60065 22.6579 5.25887 21.9994 4.91683 21.342L4.80467 21.1262C4.52359 20.5832 4.24274 20.0402 3.97281 19.4902C3.35689 18.2384 3.0413 17.1525 2.97759 16.0737C2.79754 13.033 3.68066 10.408 5.60183 8.27291C8.16585 5.4231 11.4572 3.91844 15.4242 3.79688L15.4248 3.79733ZM4.0874 16.0049C4.14 16.9238 4.41969 17.8667 4.96357 18.9729L4.96496 18.9744C5.22935 19.5159 5.50765 20.0518 5.7843 20.5862L5.89645 20.802C6.24241 21.4665 6.58724 22.1352 6.91511 22.8083C7.72751 24.4759 8.24241 26.4093 8.48895 28.7127C8.56913 29.4442 8.63146 30.1789 8.68406 30.9118L17.6866 32.6938C17.735 32.7038 17.7835 32.7139 17.8319 32.7251C17.9315 32.2022 18.0256 31.6778 18.1074 31.1475C18.2638 30.1473 18.9323 29.5514 19.9359 29.5514L20.2724 29.5557C21.4931 29.5557 22.7335 29.4328 23.9598 29.1885C24.5537 29.0699 24.7348 28.8386 24.8359 28.5041C24.8885 28.3297 24.8746 28.2513 24.8718 28.2398C24.7113 27.4152 24.7833 26.5851 25.0878 25.7005C25.2428 25.2531 25.3258 24.7489 25.4118 24.2159C25.4379 24.0645 25.3661 23.7743 25.2954 23.4915L25.2041 23.1157C24.9868 22.117 25.4504 21.2838 26.3889 20.9924C26.5426 20.9453 26.6934 20.8809 26.9108 20.7895L26.9411 20.7752C26.7819 20.5609 26.6116 20.3494 26.4374 20.1308C26.1065 19.7193 25.7758 19.3033 25.4864 18.8576C24.9398 18.0132 24.3375 16.8401 24.5162 15.2624C24.5466 14.9952 24.5911 14.6323 24.7252 14.2608C24.9259 13.72 24.8997 13.1013 24.6434 12.1926C23.5015 8.11584 20.9989 5.78811 16.9934 5.07527C16.4771 4.98389 15.9622 4.95949 15.4237 4.94227C11.7987 5.05374 8.76732 6.43548 6.41703 9.05178C4.71037 10.9495 3.92715 13.2886 4.0875 16.005L4.0874 16.0049Z" fill="#1081FB"/>
<path id="Vector_2" d="M7.5203 11.0497C7.58124 11.0111 7.59908 10.9824 7.60604 10.9112C7.71958 10.0066 8.30911 9.34212 9.11059 9.2194C9.20328 9.20361 9.22831 9.18376 9.26145 9.08926C9.5562 8.28622 10.319 7.78742 11.1481 7.87334C11.1924 7.87765 11.2244 7.86186 11.292 7.8133C11.9937 7.31022 12.7315 7.16887 13.4888 7.38605C13.5469 7.40471 13.5787 7.3961 13.6327 7.35615C14.2861 6.89302 14.9616 6.86718 15.6301 7.27864C15.6841 7.31142 15.7103 7.30998 15.7643 7.28726C16.9741 6.73586 18.1617 7.01144 19.0241 8.03885C19.0656 8.08742 19.0876 8.09316 19.1335 8.09172C19.7149 8.04747 20.2409 8.2331 20.613 8.59767C20.9854 8.962 21.1916 9.49208 21.1861 10.0909C21.1861 10.1366 21.193 10.1495 21.193 10.1495C21.1944 10.1509 21.2042 10.161 21.2554 10.178C22.0152 10.4224 22.591 11.0367 22.7945 11.8214C22.9937 12.5986 22.7931 13.4203 22.2559 14.0191C22.0622 14.2363 21.9195 14.4665 21.8062 14.7408C21.431 15.6525 20.721 16.157 19.8062 16.161C19.4766 16.1625 19.3853 16.2453 19.2484 16.5297C18.8983 17.2514 18.2852 17.7686 17.5168 17.9887C16.772 18.2016 15.9721 18.0901 15.3726 17.6971C15.1706 17.5629 15.0999 17.5755 14.9435 17.7841C14.9048 17.8341 14.8686 17.8884 14.8383 17.9427L13.3143 20.5663C13.0652 20.9964 12.661 21.2337 12.2375 21.2337C12.0658 21.2337 11.8901 21.1951 11.7198 21.1136C11.122 20.8277 10.8617 20.1577 11.0858 19.4845L11.1203 19.3845C11.1425 19.3244 11.1632 19.2644 11.1798 19.2015C11.1951 19.1457 11.1965 19.0771 11.0872 18.9656H11.0858C11.0719 18.9656 11.0373 18.9828 11.0151 18.9926L10.9722 19.0113C10.741 19.1098 10.4849 19.1957 10.2097 19.1541C9.48298 19.0498 9.0332 18.5482 8.91409 17.7023C8.90436 17.6408 8.89601 17.6279 8.89462 17.6264C8.89462 17.6264 8.88489 17.6178 8.8448 17.6107C8.41427 17.5305 8.04047 17.3607 7.72904 17.1018C6.88045 16.3988 6.53034 15.4713 6.68677 14.3468C6.70624 14.204 6.69789 14.1109 6.65503 14.0181C6.52503 13.7322 6.45574 13.4164 6.45296 13.0765L6.4532 13.0686C6.4766 12.1799 6.83669 11.5012 7.52026 11.0496L7.5203 11.0497ZM8.02708 13.9447C8.2873 14.0274 8.56421 13.9889 8.76349 13.8346C9.01676 13.6418 9.14977 13.4318 9.18569 13.1715C9.19681 13.0928 9.18847 13.0215 9.15811 12.9428C9.08466 12.7529 9.04735 12.544 9.04596 12.3228C9.04318 12.0113 9.23273 11.7898 9.51659 11.7711C9.79489 11.7596 10.0217 11.9668 10.0426 12.2699C10.0593 12.5213 10.1269 12.7086 10.2572 12.8586C10.5174 13.1658 10.8814 13.2272 11.2232 13.0316L11.2547 13.0115C11.3516 12.9529 11.4749 12.8813 11.6271 12.9072C11.8598 12.9457 12.012 13.0873 12.0576 13.3074C12.1075 13.5488 12.0189 13.7547 11.8058 13.8861C11.2038 14.2576 10.5987 14.2805 10.012 13.9561C9.99533 13.9475 9.98444 13.9418 9.97888 13.9375C9.97332 13.9461 9.96498 13.9605 9.95385 13.9803C9.52053 14.8247 8.56284 15.2178 7.67558 14.9106C7.67001 14.9092 7.66445 14.9077 7.65889 14.9049V14.9207C7.68647 15.5352 7.93441 15.9895 8.41873 16.3096C8.66227 16.4711 8.97093 16.4854 9.24507 16.351C9.54121 16.2038 9.73795 15.9079 9.77386 15.5608C9.78082 15.5051 9.77804 15.4508 9.77526 15.3951C9.77386 15.3436 9.77247 15.2908 9.77526 15.2422C9.78499 14.9721 9.94001 14.7836 10.171 14.7621C10.3469 14.7477 10.704 14.7164 10.9158 14.9951C11.0903 15.2267 11.367 15.3652 11.6742 15.3738H11.7032C12.0118 15.3738 12.2999 15.2396 12.5005 15.0023C12.5946 14.8879 12.7248 14.8221 12.8632 14.8164C12.9837 14.8107 13.1345 14.8664 13.2355 14.9707C13.4376 15.1779 13.432 15.485 13.223 15.7209C12.5601 16.4725 11.5426 16.6354 10.6942 16.1266C10.6859 16.1223 10.679 16.118 10.672 16.1151C10.6706 16.118 10.6692 16.1223 10.6678 16.128C10.5585 16.5153 10.3383 16.8311 10.0132 17.0682C9.92332 17.134 9.90941 17.1739 9.91498 17.2397C9.91915 17.2911 9.91219 17.3383 9.90524 17.3797C9.90246 17.3983 9.89968 17.4153 9.89829 17.434C9.88022 17.6854 10.0035 17.9526 10.1724 18.0299C10.3745 18.1241 10.6804 18.0569 10.8521 17.8813C10.9834 17.7457 11.0486 17.5983 11.0527 17.4297C11.0555 17.3053 11.0764 17.1239 11.2217 16.9909C11.3836 16.8452 11.5648 16.8137 11.7491 16.8895C11.9428 16.9737 12.0549 17.1323 12.0633 17.3368C12.0786 17.6284 12.0107 17.9141 11.8556 18.21C11.8376 18.2442 11.8348 18.2571 11.8334 18.2571C11.8348 18.2586 11.839 18.27 11.8596 18.2928C12.1961 18.6715 12.2818 19.1188 12.1143 19.6245L12.0839 19.7101C12.0577 19.7817 12.0327 19.8472 12.023 19.913C12.0035 20.0345 12.0561 20.146 12.153 20.1831C12.2996 20.2359 12.3868 20.1245 12.4285 20.0529L12.827 19.37C13.0803 18.9327 13.3336 18.4968 13.5924 18.0624C13.645 17.9724 13.6962 17.8808 13.746 17.7894C13.8637 17.5794 13.9854 17.3622 14.1337 17.1622C14.4284 16.7663 14.7816 16.5649 15.1565 16.5649C15.3931 16.5649 15.6369 16.645 15.879 16.8051C16.5047 17.2165 17.5718 17.1381 18.1685 16.3649C18.3249 16.1621 18.437 15.9448 18.5103 15.6975C18.5228 15.659 18.5228 15.6533 18.4894 15.6202C17.9676 15.0901 17.7516 14.4684 17.8456 13.7383C16.8351 13.674 16.0558 12.8738 15.9923 11.8378C15.9701 11.4863 16.1376 11.2505 16.4284 11.2217C16.7454 11.1918 16.9545 11.3847 16.9904 11.759C17.0268 12.1186 17.2026 12.4174 17.474 12.5829C17.7175 12.7317 17.9984 12.7444 18.26 12.6288C18.3585 12.5858 18.447 12.5116 18.5258 12.4473C18.7679 12.2487 19.0657 12.2671 19.2511 12.4915C19.4395 12.7188 19.4103 13.0274 19.1779 13.2403C18.9218 13.4747 18.7971 13.8132 18.8333 14.1678C18.8692 14.5192 19.0576 14.8194 19.3496 14.9895C19.6056 15.138 19.9073 15.1624 20.1981 15.0481C20.5054 14.9294 20.7503 14.6766 20.8542 14.3708L20.8695 14.328C20.9137 14.1979 20.9552 14.0766 20.9844 13.9479C21.0312 13.7262 20.9758 13.5704 20.8013 13.4233C20.717 13.3518 20.631 13.2719 20.5965 13.1417C20.533 12.9102 20.5912 12.7073 20.7626 12.5717C20.9496 12.4243 21.1668 12.4174 21.3607 12.5516C21.5213 12.6616 21.643 12.8073 21.7454 12.9616C21.8921 12.6274 21.9004 12.2916 21.776 11.9413C21.5973 11.4426 21.1587 11.1254 20.6327 11.1125C20.3502 11.1053 20.2133 10.9909 20.1481 10.8938C20.083 10.7998 20.0249 10.6268 20.1164 10.3496C20.2438 9.96517 20.1871 9.64938 19.9405 9.38078C19.7081 9.12792 19.4312 9.06357 19.0658 9.17362C18.7073 9.28366 18.5537 9.1607 18.36 8.85641C17.9308 8.19183 17.1654 7.89617 16.4305 8.12202C16.2643 8.17345 16.1135 8.2634 15.9765 8.35215C15.7647 8.48922 15.5114 8.58945 15.2485 8.27201C15.1171 8.11484 14.8956 8.03064 14.6478 8.03901C14.4099 8.05049 14.2008 8.15479 14.0873 8.3177C13.949 8.51913 13.7163 8.58204 13.4672 8.47343C12.7973 8.20049 12.2271 8.30622 11.7247 8.79925C11.5849 8.93488 11.4216 8.98081 11.2265 8.94493C10.9192 8.88489 10.6687 8.92197 10.4845 9.05785C10.303 9.19205 10.1883 9.4193 10.1427 9.73651C10.0915 10.1037 9.86579 10.2623 9.50731 10.2324C9.27745 10.2054 9.05198 10.2795 8.88029 10.4381C8.70719 10.5982 8.61173 10.8211 8.61173 11.064L8.61451 11.2139C8.62563 11.557 8.53688 11.6969 8.22823 11.8369C7.61924 12.1113 7.31338 12.8342 7.53192 13.4815C7.60098 13.6963 7.78635 13.8676 8.02734 13.9448L8.02708 13.9447Z" fill="#1081FB"/>
<path id="Vector_3" d="M13.3721 9.90373C13.462 9.9865 13.4606 9.98793 13.5493 9.91234C13.6863 9.79226 13.8385 9.73795 13.9854 9.75517C14.1182 9.7724 14.2401 9.84943 14.3244 9.97382C14.406 10.091 14.438 10.2195 14.4157 10.3482C14.3921 10.4953 14.3022 10.6283 14.1555 10.7369C13.9687 10.874 13.9009 11.0584 13.9368 11.3343C13.9657 11.5744 14.1029 11.6914 14.3548 11.6914H14.3562C14.5209 11.6914 14.669 11.7701 14.7631 11.9072C14.8586 12.0486 14.8836 12.2316 14.8254 12.4016C14.8101 12.443 14.7909 12.483 14.7687 12.5217C14.7575 12.5418 14.7464 12.5617 14.7383 12.5846C14.5888 12.9162 14.6164 13.2719 14.8171 13.5607C15.0038 13.8279 15.2821 13.9779 15.5839 13.9422H15.6006C15.6295 13.9451 15.6434 13.9422 15.6671 13.9394C15.75 13.9322 15.8443 13.9279 15.9426 13.9721C16.1585 14.0678 16.2735 14.2894 16.2373 14.5338C16.2028 14.7924 16.0075 14.9553 15.7058 14.9812C15.6532 14.9855 15.5992 14.9884 15.5452 14.9884C15.0108 14.9884 14.5084 14.7611 14.1444 14.3511C13.7417 13.8954 13.57 13.2823 13.6738 12.6706C13.6849 12.5991 13.6794 12.5933 13.6309 12.562C13.1673 12.2589 12.9152 11.7771 12.9015 11.1714C12.8945 10.9157 12.8004 10.7157 12.6426 10.6227C12.4862 10.5313 12.28 10.5483 12.0668 10.6712C11.7857 10.8327 11.5809 10.7327 11.4606 10.6212C11.3429 10.5155 11.2819 10.3727 11.2889 10.2196C11.2972 10.0524 11.3858 9.89519 11.5324 9.78659C12.0779 9.38805 12.8503 9.43517 13.3721 9.90381L13.3721 9.90373Z" fill="#1081FB"/>
<path id="Vector_4" d="M14.6609 2.78189C14.355 2.78189 14.1073 2.52616 14.1073 2.2104L14.1071 0.571492C14.1071 0.255726 14.3562 0 14.6607 0C14.9651 0 15.2142 0.255726 15.2142 0.571492V2.2104C15.2145 2.52616 14.9668 2.78189 14.6609 2.78189Z" fill="#1081FB"/>
<path id="Vector_5" d="M20.131 3.25938C20.0481 3.49238 19.8363 3.63519 19.6106 3.63519C19.5469 3.63519 19.4831 3.62371 19.421 3.60099C19.1332 3.49382 18.9863 3.16513 19.0901 2.86947L19.6342 1.32892C19.7394 1.03181 20.0578 0.883257 20.3428 0.986116C20.6309 1.09472 20.7789 1.42341 20.6751 1.7191L20.131 3.25938Z" fill="#1081FB"/>
<path id="Vector_6" d="M24.4042 5.9798C24.2948 6.11543 24.1384 6.18409 23.9792 6.18409C23.8532 6.18409 23.726 6.13983 23.6235 6.05108C23.3883 5.84822 23.3591 5.48676 23.5542 5.24657L24.5759 3.99066C24.7738 3.74785 25.124 3.71771 25.3552 3.91913C25.5904 4.12199 25.6196 4.48344 25.4245 4.72364L24.4042 5.9798Z" fill="#1081FB"/>
<path id="Vector_7" d="M0.359445 8.68178C0.513074 8.40739 0.849537 8.31601 1.1165 8.47174L2.49245 9.29058C2.75684 9.44918 2.84814 9.79797 2.6945 10.0707C2.59208 10.2537 2.40531 10.3565 2.21414 10.3565C2.12006 10.3565 2.0246 10.3321 1.93723 10.2807L0.561521 9.46038C0.297128 9.30346 0.207216 8.95468 0.359463 8.68172L0.359445 8.68178Z" fill="#1081FB"/>
<path id="Vector_8" d="M5.40523 6.35993C5.24742 6.35993 5.08962 6.29128 4.98024 6.15564L3.96022 4.89949C3.76372 4.65812 3.79408 4.29785 4.02951 4.09498C4.26216 3.89355 4.61229 3.92202 4.80881 4.16651L5.82883 5.42266C6.02533 5.66403 5.99498 6.02429 5.75954 6.22717C5.65851 6.31544 5.53128 6.35993 5.40523 6.35993Z" fill="#1081FB"/>
<path id="Vector_9" d="M9.91745 3.69518C9.85511 3.71815 9.79139 3.72939 9.7279 3.72939C9.5022 3.72939 9.29041 3.58514 9.20745 3.35358L8.66337 1.81327C8.55956 1.51616 8.70624 1.18893 8.99426 1.08029C9.27951 0.973117 9.59904 1.12454 9.70428 1.42189L10.2484 2.9622C10.3536 3.25787 10.2055 3.58654 9.91745 3.69518Z" fill="#1081FB"/>
</g>
</svg>
