<svg width="49" height="48" viewBox="0 0 49 48" fill="none" xmlns="http://www.w3.org/2000/svg">
<g id="calendar_month">
<mask id="mask0_22_2587" style="mask-type:alpha" maskUnits="userSpaceOnUse" x="0" y="0" width="49" height="48">
<rect id="Bounding box" x="0.5" width="48" height="48" fill="#D9D9D9"/>
</mask>
<g mask="url(#mask0_22_2587)">
<path id="calendar_month_2" d="M10.5 44C9.4 44 8.45833 43.6083 7.675 42.825C6.89167 42.0417 6.5 41.1 6.5 40V12C6.5 10.9 6.89167 9.95833 7.675 9.175C8.45833 8.39167 9.4 8 10.5 8H12.5V4H16.5V8H32.5V4H36.5V8H38.5C39.6 8 40.5417 8.39167 41.325 9.175C42.1083 9.95833 42.5 10.9 42.5 12V40C42.5 41.1 42.1083 42.0417 41.325 42.825C40.5417 43.6083 39.6 44 38.5 44H10.5ZM10.5 40H38.5V20H10.5V40ZM10.5 16H38.5V12H10.5V16ZM24.5 28C23.9333 28 23.4583 27.8083 23.075 27.425C22.6917 27.0417 22.5 26.5667 22.5 26C22.5 25.4333 22.6917 24.9583 23.075 24.575C23.4583 24.1917 23.9333 24 24.5 24C25.0667 24 25.5417 24.1917 25.925 24.575C26.3083 24.9583 26.5 25.4333 26.5 26C26.5 26.5667 26.3083 27.0417 25.925 27.425C25.5417 27.8083 25.0667 28 24.5 28ZM16.5 28C15.9333 28 15.4583 27.8083 15.075 27.425C14.6917 27.0417 14.5 26.5667 14.5 26C14.5 25.4333 14.6917 24.9583 15.075 24.575C15.4583 24.1917 15.9333 24 16.5 24C17.0667 24 17.5417 24.1917 17.925 24.575C18.3083 24.9583 18.5 25.4333 18.5 26C18.5 26.5667 18.3083 27.0417 17.925 27.425C17.5417 27.8083 17.0667 28 16.5 28ZM32.5 28C31.9333 28 31.4583 27.8083 31.075 27.425C30.6917 27.0417 30.5 26.5667 30.5 26C30.5 25.4333 30.6917 24.9583 31.075 24.575C31.4583 24.1917 31.9333 24 32.5 24C33.0667 24 33.5417 24.1917 33.925 24.575C34.3083 24.9583 34.5 25.4333 34.5 26C34.5 26.5667 34.3083 27.0417 33.925 27.425C33.5417 27.8083 33.0667 28 32.5 28ZM24.5 36C23.9333 36 23.4583 35.8083 23.075 35.425C22.6917 35.0417 22.5 34.5667 22.5 34C22.5 33.4333 22.6917 32.9583 23.075 32.575C23.4583 32.1917 23.9333 32 24.5 32C25.0667 32 25.5417 32.1917 25.925 32.575C26.3083 32.9583 26.5 33.4333 26.5 34C26.5 34.5667 26.3083 35.0417 25.925 35.425C25.5417 35.8083 25.0667 36 24.5 36ZM16.5 36C15.9333 36 15.4583 35.8083 15.075 35.425C14.6917 35.0417 14.5 34.5667 14.5 34C14.5 33.4333 14.6917 32.9583 15.075 32.575C15.4583 32.1917 15.9333 32 16.5 32C17.0667 32 17.5417 32.1917 17.925 32.575C18.3083 32.9583 18.5 33.4333 18.5 34C18.5 34.5667 18.3083 35.0417 17.925 35.425C17.5417 35.8083 17.0667 36 16.5 36ZM32.5 36C31.9333 36 31.4583 35.8083 31.075 35.425C30.6917 35.0417 30.5 34.5667 30.5 34C30.5 33.4333 30.6917 32.9583 31.075 32.575C31.4583 32.1917 31.9333 32 32.5 32C33.0667 32 33.5417 32.1917 33.925 32.575C34.3083 32.9583 34.5 33.4333 34.5 34C34.5 34.5667 34.3083 35.0417 33.925 35.425C33.5417 35.8083 33.0667 36 32.5 36Z" fill="#26D7A4"/>
</g>
</g>
</svg>
