<svg width="26" height="14" viewBox="0 0 26 14" fill="none" xmlns="http://www.w3.org/2000/svg">
<path id="Vector" d="M24.6636 12.5727C24.3111 12.8682 23.8332 13.0342 23.3348 13.0342C22.8364 13.0342 22.3584 12.8682 22.006 12.5727L12.7025 4.77004L3.39906 12.5727C3.04458 12.8598 2.56982 13.0187 2.07702 13.0151C1.58423 13.0115 1.11283 12.8457 0.764355 12.5535C0.415882 12.2612 0.218221 11.8659 0.213939 11.4526C0.209656 11.0393 0.399098 10.6411 0.741462 10.3438L11.3737 1.42673C11.7262 1.13122 12.2041 0.965214 12.7025 0.965214C13.2009 0.965214 13.6789 1.13122 14.0313 1.42673L24.6636 10.3438C25.0159 10.6394 25.2139 11.0403 25.2139 11.4582C25.2139 11.8762 25.0159 12.2771 24.6636 12.5727V12.5727Z" fill="#1081FB"/>
</svg>
