<svg width="26" height="14" viewBox="0 0 26 14" fill="none" xmlns="http://www.w3.org/2000/svg">
<path id="Vector" d="M24.6636 1.42685C24.3111 1.13134 23.8332 0.965332 23.3348 0.965332C22.8364 0.965332 22.3584 1.13134 22.006 1.42685L12.7025 9.22947L3.39906 1.42685C3.04458 1.13971 2.56982 0.980832 2.07702 0.984423C1.58423 0.988015 1.11283 1.15379 0.764355 1.44605C0.415882 1.7383 0.218221 2.13366 0.213939 2.54696C0.209656 2.96025 0.399098 3.35843 0.741462 3.65572L11.3737 12.5728C11.7262 12.8683 12.2041 13.0343 12.7025 13.0343C13.2009 13.0343 13.6789 12.8683 14.0313 12.5728L24.6636 3.65572C25.0159 3.36012 25.2139 2.95926 25.2139 2.54128C25.2139 2.12331 25.0159 1.72245 24.6636 1.42685V1.42685Z" fill="#1081FB"/>
</svg>
