<svg width="29" height="29" viewBox="0 0 29 29" fill="none" xmlns="http://www.w3.org/2000/svg">
<g id="Frame 288974">
<path id="Vector" d="M27.8037 0C27.932 0.0002232 28.0548 0.053348 28.1451 0.147543C28.2356 0.241737 28.2861 0.369194 28.2856 0.502005V15.3837V15.3835C28.2846 15.6585 28.0693 15.881 27.8037 15.8817H25.7973V17.912V17.9118C25.7962 18.1864 25.5816 18.4089 25.3165 18.41H23.9766V23.2451V23.2448C23.9764 23.3776 23.9251 23.5049 23.8342 23.5984C23.7434 23.6921 23.6202 23.7444 23.4919 23.7439H18.2967C18.1685 23.7446 18.045 23.6924 17.9538 23.5988C17.8629 23.5051 17.8113 23.3779 17.8111 23.2448V18.4098H16.6627V18.41C16.4278 18.5031 16.1633 18.394 16.0545 18.1589L14.7844 15.8815H0.770131L0.770347 15.8817C0.503754 15.8826 0.286728 15.6596 0.285646 15.3835V0.501799V0.502022C0.285215 0.368765 0.336077 0.24064 0.427025 0.14644C0.517973 0.05224 0.641679 -0.00043427 0.770347 1.14441e-05L27.8037 0ZM27.319 0.999999H1.25126V14.8817H14.2261L11.058 9.2009C10.9634 9.03908 10.9649 8.8355 11.0623 8.67524C11.1597 8.51519 11.3362 8.42568 11.5181 8.44421C11.6768 8.45939 11.8179 8.5547 11.8953 8.69889L15.3397 14.8817H15.9979C16.0567 12.8331 17.2923 11.0936 19.0341 10.3563C18.2127 9.75341 17.6727 8.76684 17.6724 7.65118C17.6724 5.82061 19.122 4.32884 20.8942 4.32884C22.6665 4.32884 24.1151 5.82055 24.1151 7.65118C24.1151 8.76661 23.5759 9.75341 22.7546 10.3563C24.4961 11.0936 25.7308 12.8331 25.7897 14.8817H27.319L27.319 0.999999ZM20.8942 5.33011C19.6412 5.33011 18.638 6.36382 18.638 7.65131C18.638 8.93879 19.6414 9.9725 20.8942 9.9725C22.1473 9.9725 23.1496 8.93879 23.1496 7.65131C23.1496 6.36382 22.1473 5.33011 20.8942 5.33011ZM20.8942 10.9765C18.7026 10.9765 16.9559 12.7783 16.9559 15.0332V17.4102L18.2966 17.41C18.5632 17.4111 18.7785 17.6359 18.7777 17.912V22.743H23.011V17.912C23.0102 17.6359 23.2252 17.4111 23.4918 17.41H24.8317V15.033C24.8317 12.778 23.0858 10.9763 20.8942 10.9763L20.8942 10.9765ZM15.9904 15.8819H15.897L15.9904 16.0488V15.8819ZM12.0708 17.9863C13.6199 17.9863 14.8852 19.2982 14.8852 20.9013C14.8852 21.8314 14.4576 22.6613 13.797 23.1953C15.2831 23.8805 16.3221 25.4196 16.3221 27.21V28.5011L16.3223 28.5009C16.3221 28.6337 16.2708 28.7609 16.1798 28.8547C16.0889 28.9482 15.9658 29.0004 15.8376 29H0.770582C0.642351 29.0004 0.519288 28.9482 0.428342 28.8547C0.337396 28.7609 0.286104 28.6337 0.285889 28.5009V27.2098C0.285889 25.4196 1.32489 23.8803 2.8109 23.1951C2.1501 22.6611 1.72191 21.8315 1.72191 20.9011C1.72191 19.2979 2.98828 17.9861 4.53741 17.9861C6.08654 17.9861 7.3529 19.2979 7.3529 20.9011C7.3529 21.8314 6.92381 22.6611 6.26303 23.1951C7.14126 23.6002 7.86176 24.304 8.3044 25.1823C8.74707 24.304 9.46688 23.6002 10.3449 23.1951C9.6841 22.6611 9.25591 21.8315 9.25591 20.9011C9.25591 19.2979 10.5223 17.9861 12.0714 17.9861L12.0708 17.9863ZM12.0708 18.9863C11.0425 18.9863 10.2208 19.8397 10.2208 20.9013C10.2208 21.9631 11.0426 22.8133 12.0708 22.8133C13.0989 22.8133 13.9236 21.9629 13.9236 20.9013C13.9236 19.8395 13.099 18.9863 12.0708 18.9863ZM4.53698 18.9863C3.50874 18.9863 2.687 19.8397 2.687 20.9013C2.687 21.9631 3.50879 22.8133 4.53698 22.8133C5.56523 22.8133 6.38592 21.9629 6.38592 20.9013C6.38592 19.8395 5.56523 18.9863 4.53698 18.9863ZM12.0708 23.8136C10.2425 23.8136 8.78475 25.3214 8.78475 27.21V27.9991H15.3558V27.21C15.3558 25.3214 13.8991 23.8136 12.0706 23.8136H12.0708ZM4.53698 23.8136C2.70874 23.8136 1.25098 25.3214 1.25098 27.21V27.9991H7.82199V27.21C7.82199 25.3214 6.36534 23.8136 4.53687 23.8136H4.53698Z" fill="#1081FB"/>
</g>
</svg>
