<svg width="27" height="26" viewBox="0 0 27 26" fill="none" xmlns="http://www.w3.org/2000/svg">
<g id="Frame 144">
<path id="Vector" d="M13.2139 0C20.3929 0 26.2139 5.82098 26.2139 13C26.2139 20.179 20.3929 26 13.2139 26C6.03485 26 0.213868 20.179 0.213868 13C0.213868 5.82098 6.03485 0 13.2139 0ZM13.2139 23.7946C19.1741 23.7946 24.0085 18.9603 24.0085 13C24.0085 7.03973 19.1741 2.20536 13.2139 2.20536C7.2536 2.20536 2.41922 7.03973 2.41922 13C2.41922 18.9603 7.2536 23.7946 13.2139 23.7946Z" fill="#DB2835"/>
<path id="Vector_2" d="M8.18172 8.4089C8.18172 8.28122 8.28619 8.17676 8.41387 8.17676L10.329 8.18546L13.2134 11.6241L16.0949 8.18837L18.013 8.17966C18.1407 8.17966 18.2451 8.28122 18.2451 8.4118C18.2451 8.46694 18.2248 8.51917 18.19 8.5627L14.4148 13.0605L18.19 17.5553C18.225 17.5979 18.2445 17.6511 18.2451 17.7062C18.2451 17.8339 18.1407 17.9384 18.013 17.9384L16.0949 17.9297L13.2134 14.491L10.3319 17.9268L8.41677 17.9355C8.28909 17.9355 8.18463 17.8339 8.18463 17.7033C8.18463 17.6482 8.20494 17.596 8.23976 17.5524L12.0092 13.0576L8.23396 8.55979C8.19913 8.51917 8.18172 8.46403 8.18172 8.4089Z" fill="#DB2835"/>
</g>
</svg>
