<svg width="75" height="75" viewBox="0 0 75 75" fill="none" xmlns="http://www.w3.org/2000/svg">
<mask id="mask0_19_1305" style="mask-type:alpha" maskUnits="userSpaceOnUse" x="0" y="0" width="75" height="75">
<rect width="75" height="75" fill="#D9D9D9"/>
</mask>
<g mask="url(#mask0_19_1305)">
<path d="M43.75 65.625C42.8646 65.625 42.1224 65.3255 41.5234 64.7266C40.9245 64.1276 40.625 63.3854 40.625 62.5C40.625 61.6146 40.9245 60.8724 41.5234 60.2734C42.1224 59.6745 42.8646 59.375 43.75 59.375C46.1979 59.375 48.3724 58.8932 50.2734 57.9297C52.1745 56.9661 53.125 55.8854 53.125 54.6875C53.125 53.9583 52.7865 53.2812 52.1094 52.6562C51.4323 52.0312 50.4948 51.4583 49.2969 50.9375L53.9062 46.3281C55.5729 47.3177 56.901 48.4896 57.8906 49.8438C58.8802 51.1979 59.375 52.8125 59.375 54.6875C59.375 58.125 57.7344 60.8073 54.4531 62.7344C51.1719 64.6615 47.6042 65.625 43.75 65.625ZM14.2969 41.7188C12.7865 40.8333 11.5885 39.8047 10.7031 38.6328C9.81771 37.4609 9.375 36.0417 9.375 34.375C9.375 32.1875 10.1823 30.3516 11.7969 28.8672C13.4115 27.3828 16.3021 25.7292 20.4688 23.9062C23.75 22.3958 25.8464 21.3411 26.7578 20.7422C27.6693 20.1432 28.125 19.4792 28.125 18.75C28.125 17.9167 27.6172 17.1875 26.6016 16.5625C25.5859 15.9375 24.0104 15.625 21.875 15.625C20.5729 15.625 19.4792 15.7813 18.5938 16.0938C17.7083 16.4063 16.901 16.9271 16.1719 17.6562C15.599 18.2292 14.8958 18.5677 14.0625 18.6719C13.2292 18.776 12.474 18.5417 11.7969 17.9688C11.1198 17.4479 10.7292 16.7708 10.625 15.9375C10.5208 15.1042 10.7552 14.349 11.3281 13.6719C12.3177 12.474 13.737 11.4583 15.5859 10.625C17.4349 9.79167 19.5312 9.375 21.875 9.375C25.625 9.375 28.6458 10.2214 30.9375 11.9141C33.2292 13.6068 34.375 15.8854 34.375 18.75C34.375 20.7812 33.6198 22.6042 32.1094 24.2188C30.599 25.8333 27.5521 27.6302 22.9688 29.6094C19.9479 30.9115 17.9688 31.875 17.0312 32.5C16.0938 33.125 15.625 33.75 15.625 34.375C15.625 34.8438 15.9245 35.2995 16.5234 35.7422C17.1224 36.1849 17.9427 36.6146 18.9844 37.0313L14.2969 41.7188ZM58.9062 32.5L45.625 19.2188L48.9062 15.9375C50.1562 14.6875 51.6536 14.0625 53.3984 14.0625C55.1432 14.0625 56.6146 14.6875 57.8125 15.9375L62.1875 20.3125C63.4375 21.5104 64.0625 22.9818 64.0625 24.7266C64.0625 26.4714 63.4375 27.9688 62.1875 29.2188L58.9062 32.5ZM18.75 59.375H23.125L45.625 36.875L41.25 32.5L18.75 55V59.375ZM12.5 65.625V52.3438L41.25 23.5938L54.5312 36.875L25.7812 65.625H12.5Z" fill="#26D7A4"/>
</g>
</svg>
