<svg width="76" height="75" viewBox="0 0 76 75" fill="none" xmlns="http://www.w3.org/2000/svg">
<g id="favorite">
<mask id="mask0_130_393" style="mask-type:alpha" maskUnits="userSpaceOnUse" x="0" y="0" width="76" height="75">
<rect id="Bounding box" x="0.5" width="75" height="75" fill="#D9D9D9"/>
</mask>
<g mask="url(#mask0_130_393)">
<path id="favorite_2" d="M38 65.6247L33.4687 61.5622C28.2083 56.8226 23.8594 52.7341 20.4219 49.2966C16.9844 45.8591 14.25 42.7731 12.2187 40.0388C10.1875 37.3044 8.76823 34.7914 7.96094 32.4997C7.15365 30.208 6.75 27.8643 6.75 25.4684C6.75 20.5726 8.39062 16.4841 11.6719 13.2028C14.9531 9.92157 19.0417 8.28094 23.9375 8.28094C26.6458 8.28094 29.224 8.85386 31.6719 9.99969C34.1198 11.1455 36.2292 12.7601 38 14.8434C39.7708 12.7601 41.8802 11.1455 44.3281 9.99969C46.776 8.85386 49.3542 8.28094 52.0625 8.28094C56.9583 8.28094 61.0469 9.92157 64.3281 13.2028C67.6094 16.4841 69.25 20.5726 69.25 25.4684C69.25 27.8643 68.8464 30.208 68.0391 32.4997C67.2318 34.7914 65.8125 37.3044 63.7812 40.0388C61.75 42.7731 59.0156 45.8591 55.5781 49.2966C52.1406 52.7341 47.7917 56.8226 42.5312 61.5622L38 65.6247Z" fill="#8128DB"/>
</g>
</g>
</svg>
