<svg width="21" height="18" viewBox="0 0 21 18" fill="none" xmlns="http://www.w3.org/2000/svg">
<path fill-rule="evenodd" clip-rule="evenodd" d="M4.10762 5.13314C3.83787 5.35473 3.58214 5.57877 3.34157 5.80033C2.45835 6.61377 1.74599 7.42479 1.2545 8.03187C1.00826 8.33594 0.816223 8.59042 0.68464 8.77052C0.618817 8.86062 0.568036 8.93219 0.533088 8.98219C0.515609 9.00719 0.502078 9.02677 0.492598 9.04062L0.481421 9.05698L0.47813 9.06187L0.477067 9.06344L0.183838 9.5L0.47639 9.93552L0.477067 9.93656L0.47813 9.93812L0.481421 9.94302L0.492598 9.95937C0.502078 9.97323 0.515609 9.99281 0.533088 10.0178C0.568036 10.0678 0.618817 10.1394 0.68464 10.2295C0.816223 10.4096 1.00826 10.6641 1.2545 10.9681C1.74599 11.5752 2.45835 12.3862 3.34157 13.1997C5.08009 14.8008 7.61016 16.5312 10.4999 16.5312C11.9264 16.5312 13.2652 16.1096 14.4645 15.49L13.2949 14.3205C12.405 14.7211 11.4641 14.9687 10.4999 14.9687C8.21207 14.9687 6.05465 13.5742 4.40009 12.0503C3.58676 11.3012 2.92618 10.5498 2.46887 9.985C2.31952 9.80052 2.19237 9.63656 2.08921 9.5C2.19237 9.36344 2.31952 9.19948 2.46887 9.015C2.92618 8.45021 3.58676 7.69875 4.40009 6.94967C4.66083 6.70952 4.93406 6.47259 5.21831 6.24383L4.10762 5.13314ZM15.7817 12.756C16.066 12.5274 16.3391 12.2904 16.5998 12.0503C17.4132 11.3012 18.0737 10.5498 18.5311 9.985C18.6803 9.80052 18.8075 9.63656 18.9107 9.5C18.8075 9.36344 18.6803 9.19948 18.5311 9.015C18.0737 8.45021 17.4132 7.69875 16.5998 6.94967C14.9452 5.42582 12.7878 4.03125 10.4999 4.03125C9.53586 4.03125 8.59492 4.27888 7.70507 4.67946L6.53555 3.50994C7.73475 2.89036 9.07357 2.46875 10.4999 2.46875C13.3897 2.46875 15.9198 4.19918 17.6584 5.80033C18.5416 6.61377 19.2539 7.42479 19.7454 8.03187C19.9916 8.33594 20.1837 8.59042 20.3152 8.77052C20.3811 8.86062 20.4319 8.93219 20.4668 8.98219C20.4843 9.00719 20.4978 9.02677 20.5073 9.04062L20.5185 9.05698L20.5218 9.06187L20.5228 9.06344L20.8161 9.5L20.5233 9.93604L20.5218 9.93812L20.5185 9.94302L20.5073 9.95937C20.4978 9.97323 20.4843 9.99281 20.4668 10.0178C20.4319 10.0678 20.3811 10.1394 20.3152 10.2295C20.1837 10.4096 19.9916 10.6641 19.7454 10.9681C19.2539 11.5752 18.5416 12.3862 17.6584 13.1997C17.4178 13.4212 17.1621 13.6452 16.8924 13.8668L15.7817 12.756ZM17.5312 17.6361L1.90617 2.0111L3.01103 0.90625L18.6361 16.5312L17.5312 17.6361Z" fill="#1081FB"/>
</svg>
