<svg width="76" height="75" viewBox="0 0 76 75" fill="none" xmlns="http://www.w3.org/2000/svg">
<g id="import_contacts">
<mask id="mask0_130_388" style="mask-type:alpha" maskUnits="userSpaceOnUse" x="0" y="0" width="76" height="75">
<rect id="Bounding box" x="0.5" width="75" height="75" fill="#D9D9D9"/>
</mask>
<g mask="url(#mask0_130_388)">
<path id="import_contacts_2" d="M20.8125 50C23.2604 50 25.6432 50.2734 27.9609 50.8203C30.2786 51.3672 32.5833 52.1875 34.875 53.2812V22.5C32.7396 21.25 30.474 20.3125 28.0781 19.6875C25.6823 19.0625 23.2604 18.75 20.8125 18.75C18.9375 18.75 17.0755 18.9323 15.2266 19.2969C13.3776 19.6615 11.5938 20.2083 9.875 20.9375V51.875C11.6979 51.25 13.5078 50.7812 15.3047 50.4688C17.1016 50.1562 18.9375 50 20.8125 50ZM41.125 53.2812C43.4167 52.1875 45.7214 51.3672 48.0391 50.8203C50.3568 50.2734 52.7396 50 55.1875 50C57.0625 50 58.8984 50.1562 60.6953 50.4688C62.4922 50.7812 64.3021 51.25 66.125 51.875V20.9375C64.4062 20.2083 62.6224 19.6615 60.7734 19.2969C58.9245 18.9323 57.0625 18.75 55.1875 18.75C52.7396 18.75 50.3177 19.0625 47.9219 19.6875C45.526 20.3125 43.2604 21.25 41.125 22.5V53.2812ZM38 62.5C35.5 60.5208 32.7917 58.9844 29.875 57.8906C26.9583 56.7969 23.9375 56.25 20.8125 56.25C18.625 56.25 16.4766 56.5365 14.3672 57.1094C12.2578 57.6823 10.2396 58.4896 8.3125 59.5312C7.21875 60.1042 6.16406 60.0781 5.14844 59.4531C4.13281 58.8281 3.625 57.9167 3.625 56.7188V19.0625C3.625 18.4896 3.76823 17.9427 4.05469 17.4219C4.34115 16.901 4.77083 16.5104 5.34375 16.25C7.73958 15 10.2396 14.0625 12.8438 13.4375C15.4479 12.8125 18.1042 12.5 20.8125 12.5C23.8333 12.5 26.7891 12.8906 29.6797 13.6719C32.5703 14.4531 35.3438 15.625 38 17.1875C40.6562 15.625 43.4297 14.4531 46.3203 13.6719C49.2109 12.8906 52.1667 12.5 55.1875 12.5C57.8958 12.5 60.5521 12.8125 63.1563 13.4375C65.7604 14.0625 68.2604 15 70.6562 16.25C71.2292 16.5104 71.6589 16.901 71.9453 17.4219C72.2318 17.9427 72.375 18.4896 72.375 19.0625V56.7188C72.375 57.9167 71.8672 58.8281 70.8516 59.4531C69.8359 60.0781 68.7812 60.1042 67.6875 59.5312C65.7604 58.4896 63.7422 57.6823 61.6328 57.1094C59.5234 56.5365 57.375 56.25 55.1875 56.25C52.0625 56.25 49.0417 56.7969 46.125 57.8906C43.2083 58.9844 40.5 60.5208 38 62.5Z" fill="#FB8110"/>
</g>
</g>
</svg>
