<svg width="19" height="18" viewBox="0 0 19 18" fill="none" xmlns="http://www.w3.org/2000/svg">
<g id="rate_review">
<mask id="mask0_2059_27216" style="mask-type:alpha" maskUnits="userSpaceOnUse" x="0" y="0" width="19" height="18">
<rect id="Bounding box" x="0.5" width="18" height="18" fill="#D9D9D9"/>
</mask>
<g mask="url(#mask0_2059_27216)">
<path id="rate_review_2" d="M8.375 10.5H14V9H9.875L8.375 10.5ZM5 10.5H6.8375L11.2625 6.1125C11.3375 6.0375 11.375 5.94375 11.375 5.83125C11.375 5.71875 11.3375 5.625 11.2625 5.55L9.95 4.2375C9.875 4.1625 9.78125 4.125 9.66875 4.125C9.55625 4.125 9.4625 4.1625 9.3875 4.2375L5 8.6625V10.5ZM2 16.5V3C2 2.5875 2.14688 2.23438 2.44062 1.94062C2.73438 1.64688 3.0875 1.5 3.5 1.5H15.5C15.9125 1.5 16.2656 1.64688 16.5594 1.94062C16.8531 2.23438 17 2.5875 17 3V12C17 12.4125 16.8531 12.7656 16.5594 13.0594C16.2656 13.3531 15.9125 13.5 15.5 13.5H5L2 16.5ZM3.5 12.8812L4.38125 12H15.5V3H3.5V12.8812Z" fill="white"/>
</g>
</g>
</svg>
