<svg width="20" height="14" viewBox="0 0 20 14" fill="none" xmlns="http://www.w3.org/2000/svg">
<path fill-rule="evenodd" clip-rule="evenodd" d="M10.0001 0.25C7.22586 0.25 4.79699 1.91121 3.12801 3.44832C2.28012 4.22922 1.59626 5.0078 1.12442 5.5906C0.888039 5.8825 0.703679 6.1268 0.577359 6.2997C0.514169 6.3862 0.465419 6.4549 0.431869 6.5029C0.415089 6.5269 0.402099 6.5457 0.392999 6.559L0.382269 6.5747L0.379109 6.5794L0.105469 7.0132L0.378089 7.4191L0.379109 7.4206L0.382269 7.4253L0.392999 7.441C0.402099 7.4543 0.415089 7.4731 0.431869 7.4971C0.465419 7.5451 0.514169 7.6138 0.577359 7.7003C0.703679 7.8732 0.888039 8.1175 1.12442 8.4094C1.59626 8.9922 2.28012 9.7708 3.12801 10.5517C4.79699 12.0888 7.22586 13.75 10.0001 13.75C12.7743 13.75 15.2031 12.0888 16.8721 10.5517C17.72 9.7708 18.4039 8.9922 18.8757 8.4094C19.1121 8.1175 19.2964 7.8732 19.4228 7.7003C19.4859 7.6138 19.5347 7.5451 19.5682 7.4971C19.585 7.4731 19.598 7.4543 19.6071 7.441L19.6178 7.4253L19.621 7.4206L19.6224 7.4186L19.9035 7L19.622 6.5809L19.621 6.5794L19.6178 6.5747L19.6071 6.559C19.598 6.5457 19.585 6.5269 19.5682 6.5029C19.5347 6.4549 19.4859 6.3862 19.4228 6.2997C19.2964 6.1268 19.1121 5.8825 18.8757 5.5906C18.4039 5.0078 17.72 4.22922 16.8721 3.44832C15.2031 1.91121 12.7743 0.25 10.0001 0.25ZM2.29022 7.4656C2.14684 7.2885 2.02478 7.1311 1.92575 7C2.02478 6.8689 2.14684 6.7115 2.29022 6.5344C2.72924 5.9922 3.36339 5.2708 4.14419 4.55168C5.73256 3.08879 7.80369 1.75 10.0001 1.75C12.1964 1.75 14.2676 3.08879 15.8559 4.55168C16.6367 5.2708 17.2709 5.9922 17.7099 6.5344C17.8533 6.7115 17.9753 6.8689 18.0744 7C17.9753 7.1311 17.8533 7.2885 17.7099 7.4656C17.2709 8.0078 16.6367 8.7292 15.8559 9.4483C14.2676 10.9112 12.1964 12.25 10.0001 12.25C7.80369 12.25 5.73256 10.9112 4.14419 9.4483C3.36339 8.7292 2.72924 8.0078 2.29022 7.4656ZM12.25 7C12.25 8.2426 11.2427 9.25 10 9.25C8.7574 9.25 7.75005 8.2426 7.75005 7C7.75005 5.7574 8.7574 4.75 10 4.75C11.2427 4.75 12.25 5.7574 12.25 7ZM13.75 7C13.75 9.0711 12.0711 10.75 10 10.75C7.92898 10.75 6.25005 9.0711 6.25005 7C6.25005 4.92893 7.92898 3.25 10 3.25C12.0711 3.25 13.75 4.92893 13.75 7Z" fill="#1081FB"/>
</svg>
