<svg width="12" height="12" viewBox="0 0 12 12" fill="none" xmlns="http://www.w3.org/2000/svg">
<path id="Star 2" d="M5.86813 1.28749C6.02338 0.838815 6.65791 0.838813 6.81316 1.28749L7.80816 4.16313C7.87785 4.36454 8.06755 4.49964 8.28067 4.49964H11.4303C11.9223 4.49964 12.1185 5.13542 11.7121 5.41267L9.2192 7.11347C9.03285 7.24062 8.95472 7.4768 9.02848 7.69L9.99325 10.4783C10.1507 10.9334 9.63682 11.3262 9.23894 11.0548L6.62244 9.26966C6.45247 9.15369 6.22882 9.15369 6.05885 9.26966L3.44235 11.0548C3.04447 11.3262 2.53054 10.9334 2.68804 10.4783L3.65281 7.69C3.72657 7.4768 3.64844 7.24062 3.46208 7.11347L0.969182 5.41267C0.562812 5.13542 0.759036 4.49964 1.25098 4.49964H4.40062C4.61374 4.49964 4.80344 4.36454 4.87313 4.16313L5.86813 1.28749Z" fill="#26D7A4"/>
</svg>
