<svg width="21" height="28" viewBox="0 0 21 28" fill="none" xmlns="http://www.w3.org/2000/svg">
<g id="Frame 288975">
<path id="Vector" d="M7.52714 9.19552C9.99475 9.19552 12.0027 7.13272 12.0027 4.59765C12.0027 2.06236 9.99475 0 7.52714 0C5.05953 0 3.05154 2.06281 3.05154 4.59765C3.05154 7.13316 5.05953 9.19552 7.52714 9.19552ZM7.52714 1.24641C9.30616 1.24641 10.7537 2.74963 10.7537 4.59743C10.7537 6.44545 9.30616 7.94867 7.52714 7.94867C5.74812 7.94867 4.30062 6.44545 4.30062 4.59743C4.30062 2.74963 5.74812 1.24641 7.52714 1.24641Z" fill="#1081FB"/>
<path id="Vector_2" d="M3.75218 27.6954H11.2024C11.5472 27.6954 11.8269 27.416 11.8269 27.0721L11.8271 19.4018H13.7881C14.115 19.4018 14.3867 19.15 14.4111 18.8246C14.452 18.271 14.7842 13.3607 13.7621 11.5033C12.6129 9.41738 10.3635 8.26904 7.42833 8.26904C3.74783 8.26904 2.00583 10.028 1.19211 11.5031C0.169151 13.3626 0.535974 18.2744 0.581535 18.8288C0.607674 19.1523 0.87844 19.4017 1.20387 19.4017H3.12688V27.0714C3.1271 27.416 3.40658 27.6952 3.75184 27.6952L3.75218 27.6954ZM10.5778 26.4488H4.37675V18.7785C4.37675 18.4343 4.09684 18.1552 3.75224 18.1552H1.78824C1.69174 16.4622 1.6545 13.254 2.2873 12.104C3.22047 10.411 4.99866 9.51612 7.42879 9.51612C9.8877 9.51612 11.7484 10.4354 12.6677 12.1045C13.3009 13.2546 13.285 16.4606 13.2007 18.1556H11.203C10.8581 18.1556 10.5784 18.435 10.5784 18.7789V26.4492L10.5778 26.4488Z" fill="#1081FB"/>
<path id="Vector_3" d="M19.6611 27.9997C20.006 27.9997 20.2856 27.7203 20.2856 27.3764V1.09402C20.2856 0.749852 20.0057 0.470703 19.6611 0.470703C19.3163 0.470703 19.0366 0.75008 19.0366 1.09402V27.377C19.0366 27.7211 19.3163 28.0001 19.6611 28.0001V27.9997Z" fill="#1081FB"/>
<path id="Vector_4" d="M15.9226 3.04351H19.4949C19.8397 3.04351 20.1194 2.76413 20.1194 2.42019C20.1194 2.07602 19.8395 1.79688 19.4949 1.79688H15.9228C15.578 1.79688 15.2983 2.07625 15.2983 2.42019C15.2983 2.76436 15.5778 3.04351 15.9226 3.04351Z" fill="#1081FB"/>
<path id="Vector_5" d="M15.9226 7.43755H19.4949C19.8397 7.43755 20.1194 7.15818 20.1194 6.81424C20.1194 6.47007 19.8395 6.19092 19.4949 6.19092H15.9228C15.578 6.19092 15.2983 6.47029 15.2983 6.81424C15.2983 7.1584 15.5778 7.43755 15.9226 7.43755Z" fill="#1081FB"/>
<path id="Vector_6" d="M15.9226 11.6661H19.4949C19.8397 11.6661 20.1194 11.3867 20.1194 11.0428C20.1194 10.6986 19.8395 10.4194 19.4949 10.4194H15.9228C15.578 10.4194 15.2983 10.6988 15.2983 11.0428C15.2983 11.3867 15.5778 11.6661 15.9226 11.6661Z" fill="#1081FB"/>
<path id="Vector_7" d="M16.8369 16.3931H19.2463C19.5912 16.3931 19.8708 16.1137 19.8708 15.7698C19.8708 15.4256 19.5909 15.1465 19.2463 15.1465H16.8371C16.4923 15.1465 16.2126 15.4259 16.2126 15.7698C16.2124 16.1138 16.4923 16.3931 16.8369 16.3931Z" fill="#1081FB"/>
<path id="Vector_8" d="M15.6731 21.3668H19.2458C19.5906 21.3668 19.8703 21.0874 19.8703 20.7434C19.8703 20.3993 19.5904 20.1201 19.2458 20.1201H15.6731C15.3283 20.1201 15.0486 20.3995 15.0486 20.7434C15.0486 21.0876 15.3287 21.3668 15.6731 21.3668Z" fill="#1081FB"/>
<path id="Vector_9" d="M15.6731 25.5953H19.2458C19.5906 25.5953 19.8703 25.3159 19.8703 24.9719C19.8703 24.6278 19.5904 24.3486 19.2458 24.3486H15.6731C15.3283 24.3486 15.0486 24.628 15.0486 24.9719C15.0486 25.3161 15.3287 25.5953 15.6731 25.5953Z" fill="#1081FB"/>
</g>
</svg>
