<svg width="36" height="35" viewBox="0 0 36 35" fill="none" xmlns="http://www.w3.org/2000/svg">
<g id="add_circle">
<mask id="mask0_1931_13450" style="mask-type:alpha" maskUnits="userSpaceOnUse" x="0" y="0" width="36" height="35">
<rect id="Bounding box" x="0.856445" width="35" height="35" fill="#D9D9D9"/>
</mask>
<g mask="url(#mask0_1931_13450)">
<path id="add_circle_2" d="M16.8984 24.7915H19.8151V18.9582H25.6484V16.0415H19.8151V10.2082H16.8984V16.0415H11.0651V18.9582H16.8984V24.7915ZM18.3568 32.0832C16.3394 32.0832 14.4436 31.7004 12.6693 30.9347C10.895 30.1691 9.35156 29.13 8.03906 27.8175C6.72656 26.505 5.6875 24.9616 4.92188 23.1873C4.15625 21.413 3.77344 19.5172 3.77344 17.4998C3.77344 15.4825 4.15625 13.5866 4.92188 11.8123C5.6875 10.038 6.72656 8.49463 8.03906 7.18213C9.35156 5.86963 10.895 4.83057 12.6693 4.06494C14.4436 3.29932 16.3394 2.9165 18.3568 2.9165C20.3741 2.9165 22.27 3.29932 24.0443 4.06494C25.8186 4.83057 27.362 5.86963 28.6745 7.18213C29.987 8.49463 31.026 10.038 31.7917 11.8123C32.5573 13.5866 32.9401 15.4825 32.9401 17.4998C32.9401 19.5172 32.5573 21.413 31.7917 23.1873C31.026 24.9616 29.987 26.505 28.6745 27.8175C27.362 29.13 25.8186 30.1691 24.0443 30.9347C22.27 31.7004 20.3741 32.0832 18.3568 32.0832ZM18.3568 29.1665C21.6137 29.1665 24.3724 28.0363 26.6328 25.7759C28.8932 23.5155 30.0234 20.7568 30.0234 17.4998C30.0234 14.2429 28.8932 11.4842 26.6328 9.2238C24.3724 6.96338 21.6137 5.83317 18.3568 5.83317C15.0998 5.83317 12.3411 6.96338 10.0807 9.2238C7.82031 11.4842 6.6901 14.2429 6.6901 17.4998C6.6901 20.7568 7.82031 23.5155 10.0807 25.7759C12.3411 28.0363 15.0998 29.1665 18.3568 29.1665Z" fill="#1081FB"/>
</g>
</g>
</svg>
