<svg width="30" height="30" viewBox="0 0 30 30" fill="none" xmlns="http://www.w3.org/2000/svg">
<path id="add_circle" d="M13.3389 21.875H16.2555V16.0417H22.0889V13.125H16.2555V7.29167H13.3389V13.125H7.50553V16.0417H13.3389V21.875ZM14.7972 29.1667C12.7798 29.1667 10.884 28.7839 9.1097 28.0182C7.33539 27.2526 5.79199 26.2135 4.47949 24.901C3.16699 23.5885 2.12793 22.0451 1.3623 20.2708C0.59668 18.4965 0.213867 16.6007 0.213867 14.5833C0.213867 12.566 0.59668 10.6701 1.3623 8.89583C2.12793 7.12153 3.16699 5.57812 4.47949 4.26562C5.79199 2.95312 7.33539 1.91406 9.1097 1.14844C10.884 0.382812 12.7798 0 14.7972 0C16.8146 0 18.7104 0.382812 20.4847 1.14844C22.259 1.91406 23.8024 2.95312 25.1149 4.26562C26.4274 5.57812 27.4665 7.12153 28.2321 8.89583C28.9977 10.6701 29.3805 12.566 29.3805 14.5833C29.3805 16.6007 28.9977 18.4965 28.2321 20.2708C27.4665 22.0451 26.4274 23.5885 25.1149 24.901C23.8024 26.2135 22.259 27.2526 20.4847 28.0182C18.7104 28.7839 16.8146 29.1667 14.7972 29.1667ZM14.7972 26.25C18.0541 26.25 20.8128 25.1198 23.0732 22.8594C25.3337 20.599 26.4639 17.8403 26.4639 14.5833C26.4639 11.3264 25.3337 8.56771 23.0732 6.30729C20.8128 4.04688 18.0541 2.91667 14.7972 2.91667C11.5403 2.91667 8.78158 4.04688 6.52116 6.30729C4.26074 8.56771 3.13053 11.3264 3.13053 14.5833C3.13053 17.8403 4.26074 20.599 6.52116 22.8594C8.78158 25.1198 11.5403 26.25 14.7972 26.25Z" fill="white"/>
</svg>
