<svg width="35" height="36" viewBox="0 0 35 36" fill="none" xmlns="http://www.w3.org/2000/svg">
<rect x="0.499023" width="33.7083" height="35.1667" rx="16.8542" fill="#1081FB"/>
<path d="M10.5517 14.35L16.9201 4L23.2885 14.35H10.5517ZM23.2885 27C21.8411 27 20.6109 26.4969 19.5977 25.4906C18.5845 24.4844 18.078 23.2625 18.078 21.825C18.078 20.3875 18.5845 19.1656 19.5977 18.1594C20.6109 17.1531 21.8411 16.65 23.2885 16.65C24.7359 16.65 25.9661 17.1531 26.9793 18.1594C27.9924 19.1656 28.499 20.3875 28.499 21.825C28.499 23.2625 27.9924 24.4844 26.9793 25.4906C25.9661 26.4969 24.7359 27 23.2885 27ZM6.49902 26.425V17.225H15.7622V26.425H6.49902ZM23.2885 24.7C24.099 24.7 24.7841 24.4221 25.3438 23.8662C25.9034 23.3104 26.1832 22.63 26.1832 21.825C26.1832 21.02 25.9034 20.3396 25.3438 19.7838C24.7841 19.2279 24.099 18.95 23.2885 18.95C22.478 18.95 21.7929 19.2279 21.2332 19.7838C20.6736 20.3396 20.3938 21.02 20.3938 21.825C20.3938 22.63 20.6736 23.3104 21.2332 23.8662C21.7929 24.4221 22.478 24.7 23.2885 24.7ZM8.81481 24.125H13.4464V19.525H8.81481V24.125ZM14.6622 12.05H19.178L16.9201 8.4275L14.6622 12.05Z" fill="white"/>
</svg>
