<svg width="36" height="35" viewBox="0 0 36 35" fill="none" xmlns="http://www.w3.org/2000/svg">
<g id="category">
<mask id="mask0_1931_13399" style="mask-type:alpha" maskUnits="userSpaceOnUse" x="0" y="0" width="36" height="35">
<rect id="Bounding box" x="0.380371" width="35" height="35" fill="#D9D9D9"/>
</mask>
<g mask="url(#mask0_1931_13399)">
<path id="category_2" d="M9.85954 16.0415L17.8804 2.9165L25.9012 16.0415H9.85954ZM25.9012 32.0832C24.0783 32.0832 22.5288 31.4451 21.2528 30.1691C19.9767 28.8931 19.3387 27.3436 19.3387 25.5207C19.3387 23.6978 19.9767 22.1483 21.2528 20.8722C22.5288 19.5962 24.0783 18.9582 25.9012 18.9582C27.7241 18.9582 29.2736 19.5962 30.5496 20.8722C31.8257 22.1483 32.4637 23.6978 32.4637 25.5207C32.4637 27.3436 31.8257 28.8931 30.5496 30.1691C29.2736 31.4451 27.7241 32.0832 25.9012 32.0832ZM4.75537 31.354V19.6873H16.422V31.354H4.75537ZM25.9012 29.1665C26.922 29.1665 27.7849 28.8141 28.4897 28.1092C29.1946 27.4043 29.547 26.5415 29.547 25.5207C29.547 24.4998 29.1946 23.637 28.4897 22.9321C27.7849 22.2273 26.922 21.8748 25.9012 21.8748C24.8804 21.8748 24.0175 22.2273 23.3127 22.9321C22.6078 23.637 22.2554 24.4998 22.2554 25.5207C22.2554 26.5415 22.6078 27.4043 23.3127 28.1092C24.0175 28.8141 24.8804 29.1665 25.9012 29.1665ZM7.67204 28.4373H13.5054V22.604H7.67204V28.4373ZM15.0366 13.1248H20.7241L17.8804 8.53109L15.0366 13.1248Z" fill="#758CA6"/>
</g>
</g>
</svg>
