<svg width="36" height="35" viewBox="0 0 36 35" fill="none" xmlns="http://www.w3.org/2000/svg">
<g id="category">
<mask id="mask0_1931_13544" style="mask-type:alpha" maskUnits="userSpaceOnUse" x="0" y="0" width="36" height="35">
<rect id="Bounding box" x="0.712891" width="35" height="35" fill="#D9D9D9"/>
</mask>
<g mask="url(#mask0_1931_13544)">
<path id="category_2" d="M10.1921 16.0415L18.2129 2.9165L26.2337 16.0415H10.1921ZM26.2337 32.0832C24.4108 32.0832 22.8613 31.4451 21.5853 30.1691C20.3092 28.8931 19.6712 27.3436 19.6712 25.5207C19.6712 23.6978 20.3092 22.1483 21.5853 20.8722C22.8613 19.5962 24.4108 18.9582 26.2337 18.9582C28.0566 18.9582 29.6061 19.5962 30.8822 20.8722C32.1582 22.1483 32.7962 23.6978 32.7962 25.5207C32.7962 27.3436 32.1582 28.8931 30.8822 30.1691C29.6061 31.4451 28.0566 32.0832 26.2337 32.0832ZM5.08789 31.354V19.6873H16.7546V31.354H5.08789ZM26.2337 29.1665C27.2546 29.1665 28.1174 28.8141 28.8223 28.1092C29.5271 27.4043 29.8796 26.5415 29.8796 25.5207C29.8796 24.4998 29.5271 23.637 28.8223 22.9321C28.1174 22.2273 27.2546 21.8748 26.2337 21.8748C25.2129 21.8748 24.35 22.2273 23.6452 22.9321C22.9403 23.637 22.5879 24.4998 22.5879 25.5207C22.5879 26.5415 22.9403 27.4043 23.6452 28.1092C24.35 28.8141 25.2129 29.1665 26.2337 29.1665ZM8.00456 28.4373H13.8379V22.604H8.00456V28.4373ZM15.3691 13.1248H21.0566L18.2129 8.53109L15.3691 13.1248Z" fill="#1081FB"/>
</g>
</g>
</svg>
