<svg width="36" height="35" viewBox="0 0 36 35" fill="none" xmlns="http://www.w3.org/2000/svg">
<rect x="0.355469" width="35" height="35" rx="17.5" fill="#1081FB"/>
<mask id="mask0_1931_13627" style="mask-type:alpha" maskUnits="userSpaceOnUse" x="4" y="4" width="28" height="27">
<rect x="4.60547" y="4.25" width="26.5" height="26.5" fill="#D9D9D9"/>
</mask>
<g mask="url(#mask0_1931_13627)">
<path d="M6.81445 28.5417L12.3353 13.0833L22.2728 23.0208L6.81445 28.5417ZM10.4582 24.8979L18.2426 22.1375L13.2186 17.1135L10.4582 24.8979ZM20.6717 18.1073L19.5124 16.9479L25.6957 10.7646C26.2846 10.1757 26.9931 9.88125 27.8212 9.88125C28.6493 9.88125 29.3579 10.1757 29.9467 10.7646L30.6092 11.4271L29.4499 12.5865L28.7874 11.924C28.5297 11.6663 28.2077 11.5375 27.8212 11.5375C27.4348 11.5375 27.1127 11.6663 26.8551 11.924L20.6717 18.1073ZM16.2551 13.6906L15.0957 12.5312L15.7582 11.8688C16.0158 11.6111 16.1447 11.2983 16.1447 10.9302C16.1447 10.5622 16.0158 10.2493 15.7582 9.99167L15.0405 9.27396L16.1999 8.11458L16.9176 8.83229C17.5065 9.42118 17.8009 10.1205 17.8009 10.9302C17.8009 11.7399 17.5065 12.4392 16.9176 13.0281L16.2551 13.6906ZM18.4634 15.899L17.304 14.7396L21.279 10.7646C21.5367 10.5069 21.6655 10.1849 21.6655 9.79844C21.6655 9.41198 21.5367 9.08993 21.279 8.83229L19.5124 7.06563L20.6717 5.90625L22.4384 7.67292C23.0273 8.26181 23.3217 8.97031 23.3217 9.79844C23.3217 10.6266 23.0273 11.3351 22.4384 11.924L18.4634 15.899ZM22.8801 20.3156L21.7207 19.1562L23.4874 17.3896C24.0763 16.8007 24.7848 16.5063 25.6129 16.5063C26.441 16.5063 27.1495 16.8007 27.7384 17.3896L29.5051 19.1562L28.3457 20.3156L26.579 18.549C26.3214 18.2913 25.9993 18.1625 25.6129 18.1625C25.2264 18.1625 24.9044 18.2913 24.6467 18.549L22.8801 20.3156Z" fill="white"/>
</g>
</svg>
