<svg width="75" height="75" viewBox="0 0 75 75" fill="none" xmlns="http://www.w3.org/2000/svg">
<g id="calendar_month">
<mask id="mask0_130_398" style="mask-type:alpha" maskUnits="userSpaceOnUse" x="0" y="0" width="75" height="75">
<rect id="Bounding box" width="75" height="75" fill="#D9D9D9"/>
</mask>
<g mask="url(#mask0_130_398)">
<path id="calendar_month_2" d="M15.625 68.75C13.9062 68.75 12.4349 68.138 11.2109 66.9141C9.98698 65.6901 9.375 64.2188 9.375 62.5V18.75C9.375 17.0312 9.98698 15.5599 11.2109 14.3359C12.4349 13.112 13.9062 12.5 15.625 12.5H18.75V6.25H25V12.5H50V6.25H56.25V12.5H59.375C61.0938 12.5 62.5651 13.112 63.7891 14.3359C65.013 15.5599 65.625 17.0312 65.625 18.75V62.5C65.625 64.2188 65.013 65.6901 63.7891 66.9141C62.5651 68.138 61.0938 68.75 59.375 68.75H15.625ZM15.625 62.5H59.375V31.25H15.625V62.5ZM15.625 25H59.375V18.75H15.625V25ZM37.5 43.75C36.6146 43.75 35.8724 43.4505 35.2734 42.8516C34.6745 42.2526 34.375 41.5104 34.375 40.625C34.375 39.7396 34.6745 38.9974 35.2734 38.3984C35.8724 37.7995 36.6146 37.5 37.5 37.5C38.3854 37.5 39.1276 37.7995 39.7266 38.3984C40.3255 38.9974 40.625 39.7396 40.625 40.625C40.625 41.5104 40.3255 42.2526 39.7266 42.8516C39.1276 43.4505 38.3854 43.75 37.5 43.75ZM25 43.75C24.1146 43.75 23.3724 43.4505 22.7734 42.8516C22.1745 42.2526 21.875 41.5104 21.875 40.625C21.875 39.7396 22.1745 38.9974 22.7734 38.3984C23.3724 37.7995 24.1146 37.5 25 37.5C25.8854 37.5 26.6276 37.7995 27.2266 38.3984C27.8255 38.9974 28.125 39.7396 28.125 40.625C28.125 41.5104 27.8255 42.2526 27.2266 42.8516C26.6276 43.4505 25.8854 43.75 25 43.75ZM50 43.75C49.1146 43.75 48.3724 43.4505 47.7734 42.8516C47.1745 42.2526 46.875 41.5104 46.875 40.625C46.875 39.7396 47.1745 38.9974 47.7734 38.3984C48.3724 37.7995 49.1146 37.5 50 37.5C50.8854 37.5 51.6276 37.7995 52.2266 38.3984C52.8255 38.9974 53.125 39.7396 53.125 40.625C53.125 41.5104 52.8255 42.2526 52.2266 42.8516C51.6276 43.4505 50.8854 43.75 50 43.75ZM37.5 56.25C36.6146 56.25 35.8724 55.9505 35.2734 55.3516C34.6745 54.7526 34.375 54.0104 34.375 53.125C34.375 52.2396 34.6745 51.4974 35.2734 50.8984C35.8724 50.2995 36.6146 50 37.5 50C38.3854 50 39.1276 50.2995 39.7266 50.8984C40.3255 51.4974 40.625 52.2396 40.625 53.125C40.625 54.0104 40.3255 54.7526 39.7266 55.3516C39.1276 55.9505 38.3854 56.25 37.5 56.25ZM25 56.25C24.1146 56.25 23.3724 55.9505 22.7734 55.3516C22.1745 54.7526 21.875 54.0104 21.875 53.125C21.875 52.2396 22.1745 51.4974 22.7734 50.8984C23.3724 50.2995 24.1146 50 25 50C25.8854 50 26.6276 50.2995 27.2266 50.8984C27.8255 51.4974 28.125 52.2396 28.125 53.125C28.125 54.0104 27.8255 54.7526 27.2266 55.3516C26.6276 55.9505 25.8854 56.25 25 56.25ZM50 56.25C49.1146 56.25 48.3724 55.9505 47.7734 55.3516C47.1745 54.7526 46.875 54.0104 46.875 53.125C46.875 52.2396 47.1745 51.4974 47.7734 50.8984C48.3724 50.2995 49.1146 50 50 50C50.8854 50 51.6276 50.2995 52.2266 50.8984C52.8255 51.4974 53.125 52.2396 53.125 53.125C53.125 54.0104 52.8255 54.7526 52.2266 55.3516C51.6276 55.9505 50.8854 56.25 50 56.25Z" fill="#0DDCDC"/>
</g>
</g>
</svg>
