<svg width="24" height="24" viewBox="0 0 24 24" fill="none" xmlns="http://www.w3.org/2000/svg">
<g id="find_in_page">
<mask id="mask0_2486_17868" style="mask-type:alpha" maskUnits="userSpaceOnUse" x="0" y="0" width="24" height="24">
<rect id="Bounding box" width="24" height="24" fill="#D9D9D9"/>
</mask>
<g mask="url(#mask0_2486_17868)">
<path id="find_in_page_2" d="M12 15C12.55 15 13.0208 14.8042 13.4125 14.4125C13.8042 14.0208 14 13.55 14 13C14 12.45 13.8042 11.9792 13.4125 11.5875C13.0208 11.1958 12.55 11 12 11C11.45 11 10.9792 11.1958 10.5875 11.5875C10.1958 11.9792 10 12.45 10 13C10 13.55 10.1958 14.0208 10.5875 14.4125C10.9792 14.8042 11.45 15 12 15ZM6 22C5.45 22 4.97917 21.8042 4.5875 21.4125C4.19583 21.0208 4 20.55 4 20V4C4 3.45 4.19583 2.97917 4.5875 2.5875C4.97917 2.19583 5.45 2 6 2H14L20 8V20C20 20.55 19.8042 21.0208 19.4125 21.4125C19.0208 21.8042 18.55 22 18 22H6ZM6 20H17.575L14 16.45C13.7167 16.6333 13.4083 16.7708 13.075 16.8625C12.7417 16.9542 12.3833 17 12 17C10.9 17 9.95833 16.6083 9.175 15.825C8.39167 15.0417 8 14.1 8 13C8 11.9 8.39167 10.9583 9.175 10.175C9.95833 9.39167 10.9 9 12 9C13.1 9 14.0417 9.39167 14.825 10.175C15.6083 10.9583 16 11.9 16 13C16 13.3833 15.9542 13.7417 15.8625 14.075C15.7708 14.4083 15.6333 14.7167 15.45 15L18 17.6V8.85L13.15 4H6V20Z" fill="#26D7A4"/>
</g>
</g>
</svg>
