<svg width="40" height="40" viewBox="0 0 40 40" fill="none" xmlns="http://www.w3.org/2000/svg">
<g id="heart_plus">
<mask id="mask0_20_10427" style="mask-type:alpha" maskUnits="userSpaceOnUse" x="0" y="0" width="40" height="40">
<rect id="Bounding box" width="40" height="40" fill="#D9D9D9"/>
</mask>
<g mask="url(#mask0_20_10427)">
<path id="heart_plus_2" d="M18.3337 35L13.042 30.25C11.042 28.4444 9.32671 26.8333 7.89616 25.4167C6.4656 24 5.28505 22.6667 4.35449 21.4167C3.42394 20.1667 2.74338 18.9583 2.31283 17.7917C1.88227 16.625 1.66699 15.4028 1.66699 14.125C1.66699 11.5139 2.54199 9.34028 4.29199 7.60417C6.04199 5.86806 8.22255 5 10.8337 5C12.2781 5 13.6531 5.30556 14.9587 5.91667C16.2642 6.52778 17.3892 7.38889 18.3337 8.5C19.2781 7.38889 20.4031 6.52778 21.7087 5.91667C23.0142 5.30556 24.3892 5 25.8337 5C28.0837 5 29.9725 5.63194 31.5003 6.89583C33.0281 8.15972 34.0698 9.75 34.6253 11.6667H31.0837C30.5837 10.5556 29.8475 9.72222 28.8753 9.16667C27.9031 8.61111 26.8892 8.33333 25.8337 8.33333C24.417 8.33333 23.1948 8.71528 22.167 9.47917C21.1392 10.2431 20.1809 11.25 19.292 12.5H17.3753C16.5142 11.25 15.535 10.2431 14.4378 9.47917C13.3406 8.71528 12.1392 8.33333 10.8337 8.33333C9.25033 8.33333 7.88227 8.88194 6.72949 9.97917C5.57671 11.0764 5.00033 12.4583 5.00033 14.125C5.00033 15.0417 5.19477 15.9722 5.58366 16.9167C5.97255 17.8611 6.66699 18.9514 7.66699 20.1875C8.66699 21.4236 10.0281 22.8681 11.7503 24.5208C13.4725 26.1736 15.667 28.1667 18.3337 30.5C19.0559 29.8611 19.9031 29.125 20.8753 28.2917C21.8475 27.4583 22.6253 26.7639 23.2087 26.2083L25.5837 28.5833C24.9725 29.1389 24.1948 29.8264 23.2503 30.6458C22.3059 31.4653 21.4725 32.1944 20.7503 32.8333L18.3337 35ZM30.0003 28.3333V23.3333H25.0003V20H30.0003V15H33.3337V20H38.3337V23.3333H33.3337V28.3333H30.0003Z" fill="#8228DB"/>
</g>
</g>
</svg>
