<svg width="31" height="32" viewBox="0 0 31 32" fill="none" xmlns="http://www.w3.org/2000/svg">
<path d="M5.28882 30.0625C4.65304 30.0625 4.11262 29.8711 3.66757 29.4883C3.22252 29.1055 3 28.6406 3 28.0938V13.8531C3 13.3062 3.22252 12.8414 3.66757 12.4586C4.11262 12.0758 4.65304 11.8844 5.28882 11.8844H7.95912V8.73438C7.95912 7.00625 8.66484 5.53516 10.0763 4.32109C11.4877 3.10703 13.198 2.5 15.2071 2.5C17.2161 2.5 18.9264 3.10703 20.3378 4.32109C21.7493 5.53516 22.455 7.00625 22.455 8.73438V11.8844H25.1253C25.7611 11.8844 26.3015 12.0758 26.7465 12.4586C27.1916 12.8414 27.4141 13.3062 27.4141 13.8531V28.0938C27.4141 28.6406 27.1916 29.1055 26.7465 29.4883C26.3015 29.8711 25.7611 30.0625 25.1253 30.0625H5.28882ZM5.28882 28.0938H25.1253V13.8531H5.28882V28.0938ZM15.2071 23.5C16.0209 23.5 16.7139 23.2594 17.2861 22.7781C17.8583 22.2969 18.1444 21.7172 18.1444 21.0391C18.1444 20.3828 17.8583 19.7867 17.2861 19.2508C16.7139 18.7148 16.0209 18.4469 15.2071 18.4469C14.3933 18.4469 13.7002 18.7148 13.128 19.2508C12.5558 19.7867 12.2697 20.3828 12.2697 21.0391C12.2697 21.7172 12.5558 22.2969 13.128 22.7781C13.7002 23.2594 14.3933 23.5 15.2071 23.5ZM10.2479 11.8844H20.1662V8.73438C20.1662 7.55312 19.683 6.54688 18.7166 5.71563C17.7502 4.88438 16.5803 4.46875 15.2071 4.46875C13.8338 4.46875 12.6639 4.88438 11.6975 5.71563C10.7311 6.54688 10.2479 7.55312 10.2479 8.73438V11.8844ZM5.28882 28.0938V13.8531V28.0938Z" fill="#1081FB"/>
</svg>
