<svg width="21" height="22" viewBox="0 0 21 22" fill="none" xmlns="http://www.w3.org/2000/svg">
<path id="Vector" d="M10.6667 10.6499C9.24587 10.6499 8.08337 10.1832 7.17921 9.2499C6.27504 8.31657 5.82296 7.11657 5.82296 5.6499C5.82296 4.18324 6.27504 2.98324 7.17921 2.0499C8.08337 1.11657 9.24587 0.649902 10.6667 0.649902C12.0875 0.649902 13.25 1.11657 14.1542 2.0499C15.0584 2.98324 15.5105 4.18324 15.5105 5.6499C15.5105 7.11657 15.0584 8.31657 14.1542 9.2499C13.25 10.1832 12.0875 10.6499 10.6667 10.6499V10.6499ZM0.333374 21.3499V18.2166C0.333374 17.3721 0.537888 16.6499 0.946916 16.0499C1.35594 15.4499 1.88337 14.9943 2.52921 14.6832C3.97157 14.0166 5.35473 13.5166 6.67869 13.1832C8.00265 12.8499 9.33198 12.6832 10.6667 12.6832C12.0014 12.6832 13.3254 12.8555 14.6386 13.1999C15.9518 13.5443 17.3296 14.0388 18.7719 14.6832C19.4393 14.9943 19.9775 15.4499 20.3865 16.0499C20.7955 16.6499 21 17.3721 21 18.2166V21.3499H0.333374ZM2.27087 19.3499H19.0625V18.2166C19.0625 17.861 18.9603 17.5221 18.7558 17.1999C18.5513 16.8777 18.2983 16.6388 17.9969 16.4832C16.6191 15.7943 15.3598 15.3221 14.2188 15.0666C13.0778 14.811 11.8938 14.6832 10.6667 14.6832C9.43962 14.6832 8.24483 14.811 7.08233 15.0666C5.91983 15.3221 4.66046 15.7943 3.30421 16.4832C3.00282 16.6388 2.75525 16.8777 2.5615 17.1999C2.36775 17.5221 2.27087 17.861 2.27087 18.2166V19.3499ZM10.6667 8.6499C11.5063 8.6499 12.2006 8.36657 12.7495 7.7999C13.2985 7.23323 13.573 6.51657 13.573 5.6499C13.573 4.78324 13.2985 4.06657 12.7495 3.4999C12.2006 2.93324 11.5063 2.6499 10.6667 2.6499C9.82712 2.6499 9.13285 2.93324 8.58389 3.4999C8.03494 4.06657 7.76046 4.78324 7.76046 5.6499C7.76046 6.51657 8.03494 7.23323 8.58389 7.7999C9.13285 8.36657 9.82712 8.6499 10.6667 8.6499Z" fill="#1081FB"/>
</svg>
