<svg width="13" height="26" viewBox="0 0 13 26" fill="none" xmlns="http://www.w3.org/2000/svg">
<path id="Vector" d="M0.747161 1.05029C0.451652 1.40274 0.285645 1.88071 0.285645 2.37909C0.285645 2.87746 0.451652 3.35543 0.747161 3.70788L8.54979 13.0113L0.747161 22.3148C0.460027 22.6693 0.301145 23.144 0.304737 23.6368C0.308328 24.1296 0.474105 24.601 0.766362 24.9495C1.05862 25.298 1.45397 25.4956 1.86727 25.4999C2.28057 25.5042 2.67874 25.3148 2.97603 24.9724L11.8931 14.3401C12.1886 13.9877 12.3546 13.5097 12.3546 13.0113C12.3546 12.513 12.1886 12.035 11.8931 11.6825L2.97603 1.05029C2.68043 0.697939 2.27957 0.5 1.8616 0.5C1.44362 0.5 1.04276 0.697939 0.747161 1.05029V1.05029Z" fill="#8A939B"/>
</svg>
