<svg width="37" height="37" viewBox="0 0 37 37" fill="none" xmlns="http://www.w3.org/2000/svg">
<path id="Vector" d="M18.5 17.8744C15.9563 17.8744 13.875 17.0403 12.2563 15.372C10.6375 13.7037 9.82812 11.5588 9.82812 8.9372C9.82812 6.31562 10.6375 4.17069 12.2563 2.50242C13.875 0.834139 15.9563 0 18.5 0C21.0438 0 23.125 0.834139 24.7437 2.50242C26.3625 4.17069 27.1719 6.31562 27.1719 8.9372C27.1719 11.5588 26.3625 13.7037 24.7437 15.372C23.125 17.0403 21.0438 17.8744 18.5 17.8744ZM0 37V31.3994C0 29.89 0.366146 28.599 1.09844 27.5266C1.83073 26.4541 2.775 25.6398 3.93125 25.0837C6.51354 23.8921 8.98984 22.9984 11.3602 22.4026C13.7305 21.8068 16.1104 21.5089 18.5 21.5089C20.8896 21.5089 23.2599 21.8167 25.6109 22.4324C27.962 23.048 30.4286 23.9318 33.0109 25.0837C34.2057 25.6398 35.1693 26.4541 35.9016 27.5266C36.6339 28.599 37 29.89 37 31.3994V37H0ZM3.46875 33.4251H33.5312V31.3994C33.5312 30.7638 33.3482 30.1581 32.982 29.5821C32.6159 29.0062 32.163 28.5792 31.6234 28.3011C29.1568 27.0698 26.9021 26.2257 24.8594 25.7689C22.8167 25.3121 20.6969 25.0837 18.5 25.0837C16.3031 25.0837 14.1641 25.3121 12.0828 25.7689C10.0016 26.2257 7.74688 27.0698 5.31875 28.3011C4.77917 28.5792 4.33594 29.0062 3.98906 29.5821C3.64219 30.1581 3.46875 30.7638 3.46875 31.3994V33.4251ZM18.5 14.2995C20.0031 14.2995 21.2461 13.7931 22.2289 12.7802C23.2117 11.7673 23.7031 10.4863 23.7031 8.9372C23.7031 7.38808 23.2117 6.10709 22.2289 5.0942C21.2461 4.08132 20.0031 3.57488 18.5 3.57488C16.9969 3.57488 15.7539 4.08132 14.7711 5.0942C13.7883 6.10709 13.2969 7.38808 13.2969 8.9372C13.2969 10.4863 13.7883 11.7673 14.7711 12.7802C15.7539 13.7931 16.9969 14.2995 18.5 14.2995Z" fill="#1081FB"/>
</svg>
