<svg width="36" height="36" viewBox="0 0 36 36" fill="none" xmlns="http://www.w3.org/2000/svg">
<rect x="0.213867" width="35.1667" height="35.1667" rx="17.5833" fill="#1081FB"/>
<path d="M16.3389 24.875H19.2555V19.0417H25.0889V16.125H19.2555V10.2917H16.3389V16.125H10.5055V19.0417H16.3389V24.875ZM17.7972 32.1667C15.7798 32.1667 13.884 31.7839 12.1097 31.0182C10.3354 30.2526 8.79199 29.2135 7.47949 27.901C6.16699 26.5885 5.12793 25.0451 4.3623 23.2708C3.59668 21.4965 3.21387 19.6007 3.21387 17.5833C3.21387 15.566 3.59668 13.6701 4.3623 11.8958C5.12793 10.1215 6.16699 8.57812 7.47949 7.26562C8.79199 5.95312 10.3354 4.91406 12.1097 4.14844C13.884 3.38281 15.7798 3 17.7972 3C19.8146 3 21.7104 3.38281 23.4847 4.14844C25.259 4.91406 26.8024 5.95312 28.1149 7.26562C29.4274 8.57812 30.4665 10.1215 31.2321 11.8958C31.9977 13.6701 32.3805 15.566 32.3805 17.5833C32.3805 19.6007 31.9977 21.4965 31.2321 23.2708C30.4665 25.0451 29.4274 26.5885 28.1149 27.901C26.8024 29.2135 25.259 30.2526 23.4847 31.0182C21.7104 31.7839 19.8146 32.1667 17.7972 32.1667ZM17.7972 29.25C21.0541 29.25 23.8128 28.1198 26.0732 25.8594C28.3337 23.599 29.4639 20.8403 29.4639 17.5833C29.4639 14.3264 28.3337 11.5677 26.0732 9.30729C23.8128 7.04688 21.0541 5.91667 17.7972 5.91667C14.5403 5.91667 11.7816 7.04688 9.52116 9.30729C7.26074 11.5677 6.13053 14.3264 6.13053 17.5833C6.13053 20.8403 7.26074 23.599 9.52116 25.8594C11.7816 28.1198 14.5403 29.25 17.7972 29.25Z" fill="white"/>
</svg>
