<svg width="36" height="35" viewBox="0 0 36 35" fill="none" xmlns="http://www.w3.org/2000/svg">
<g id="celebration">
<mask id="mask0_1931_13405" style="mask-type:alpha" maskUnits="userSpaceOnUse" x="0" y="0" width="36" height="35">
<rect id="Bounding box" x="0.380371" width="35" height="35" fill="#D9D9D9"/>
</mask>
<g mask="url(#mask0_1931_13405)">
<path id="celebration_2" d="M3.29688 32.0833L10.5885 11.6667L23.7135 24.7917L3.29688 32.0833ZM8.10938 27.2708L18.3906 23.625L11.7552 16.9896L8.10938 27.2708ZM21.599 18.3021L20.0677 16.7708L28.2344 8.60417C29.0122 7.82639 29.9479 7.4375 31.0417 7.4375C32.1354 7.4375 33.0712 7.82639 33.849 8.60417L34.724 9.47917L33.1927 11.0104L32.3177 10.1354C31.9774 9.79514 31.5521 9.625 31.0417 9.625C30.5313 9.625 30.1059 9.79514 29.7656 10.1354L21.599 18.3021ZM15.7656 12.4688L14.2344 10.9375L15.1094 10.0625C15.4497 9.72222 15.6198 9.30903 15.6198 8.82292C15.6198 8.33681 15.4497 7.92361 15.1094 7.58333L14.1615 6.63542L15.6927 5.10417L16.6406 6.05208C17.4184 6.82986 17.8073 7.75347 17.8073 8.82292C17.8073 9.89236 17.4184 10.816 16.6406 11.5938L15.7656 12.4688ZM18.6823 15.3854L17.151 13.8542L22.401 8.60417C22.7413 8.26389 22.9115 7.83854 22.9115 7.32813C22.9115 6.81771 22.7413 6.39236 22.401 6.05208L20.0677 3.71875L21.599 2.1875L23.9323 4.52083C24.7101 5.29861 25.099 6.23438 25.099 7.32813C25.099 8.42188 24.7101 9.35764 23.9323 10.1354L18.6823 15.3854ZM24.5156 21.2188L22.9844 19.6875L25.3177 17.3542C26.0955 16.5764 27.0313 16.1875 28.125 16.1875C29.2188 16.1875 30.1545 16.5764 30.9323 17.3542L33.2656 19.6875L31.7344 21.2188L29.401 18.8854C29.0608 18.5451 28.6354 18.375 28.125 18.375C27.6146 18.375 27.1892 18.5451 26.849 18.8854L24.5156 21.2188Z" fill="#758CA6"/>
</g>
</g>
</svg>
