<svg width="36" height="35" viewBox="0 0 36 35" fill="none" xmlns="http://www.w3.org/2000/svg">
<rect x="0.712891" width="35" height="35" rx="17.5" fill="#1081FB"/>
<mask id="mask0_1931_13626" style="mask-type:alpha" maskUnits="userSpaceOnUse" x="5" y="4" width="27" height="27">
<rect x="5.21289" y="4.5" width="26" height="26" fill="#D9D9D9"/>
</mask>
<g mask="url(#mask0_1931_13626)">
<path d="M17.1296 27.2502H10.6296C10.0337 27.2502 9.52365 27.038 9.09935 26.6137C8.67504 26.1894 8.46289 25.6793 8.46289 25.0835V9.91683C8.46289 9.321 8.67504 8.81093 9.09935 8.38662C9.52365 7.96232 10.0337 7.75016 10.6296 7.75016H15.1525C15.3511 7.11822 15.7393 6.59912 16.3171 6.19287C16.8948 5.78662 17.5268 5.5835 18.2129 5.5835C18.9351 5.5835 19.5806 5.78662 20.1493 6.19287C20.7181 6.59912 21.1018 7.11822 21.3004 7.75016H25.7962C26.3921 7.75016 26.9021 7.96232 27.3264 8.38662C27.7507 8.81093 27.9629 9.321 27.9629 9.91683V15.3335H25.7962V9.91683H23.6296V13.1668H12.7962V9.91683H10.6296V25.0835H17.1296V27.2502ZM22.0046 26.0856L17.4004 21.4814L18.9171 19.9647L22.0046 23.0522L28.1254 16.9314L29.6421 18.4481L22.0046 26.0856ZM18.2129 9.91683C18.5198 9.91683 18.7771 9.81301 18.9848 9.60537C19.1924 9.39773 19.2962 9.14044 19.2962 8.8335C19.2962 8.52655 19.1924 8.26926 18.9848 8.06162C18.7771 7.85398 18.5198 7.75016 18.2129 7.75016C17.9059 7.75016 17.6487 7.85398 17.441 8.06162C17.2334 8.26926 17.1296 8.52655 17.1296 8.8335C17.1296 9.14044 17.2334 9.39773 17.441 9.60537C17.6487 9.81301 17.9059 9.91683 18.2129 9.91683Z" fill="white"/>
</g>
</svg>
