<svg width="36" height="35" viewBox="0 0 36 35" fill="none" xmlns="http://www.w3.org/2000/svg">
<g id="inventory">
<mask id="mask0_1931_13569" style="mask-type:alpha" maskUnits="userSpaceOnUse" x="0" y="0" width="36" height="35">
<rect id="Bounding box" x="0.355469" width="35" height="35" fill="#D9D9D9"/>
</mask>
<g mask="url(#mask0_1931_13569)">
<path id="inventory_2" d="M16.3971 30.6252H7.64714C6.84505 30.6252 6.15842 30.3396 5.58724 29.7684C5.01606 29.1972 4.73047 28.5106 4.73047 27.7085V7.29183C4.73047 6.48975 5.01606 5.80311 5.58724 5.23193C6.15842 4.66075 6.84505 4.37516 7.64714 4.37516H13.7357C14.003 3.52447 14.5256 2.82568 15.3034 2.27881C16.0812 1.73193 16.9319 1.4585 17.8555 1.4585C18.8277 1.4585 19.6966 1.73193 20.4622 2.27881C21.2279 2.82568 21.7444 3.52447 22.0117 4.37516H28.0638C28.8659 4.37516 29.5525 4.66075 30.1237 5.23193C30.6949 5.80311 30.9805 6.48975 30.9805 7.29183V14.5835H28.0638V7.29183H25.1471V11.6668H10.5638V7.29183H7.64714V27.7085H16.3971V30.6252ZM22.9596 29.0575L16.7617 22.8595L18.8034 20.8179L22.9596 24.9741L31.1992 16.7345L33.2409 18.7762L22.9596 29.0575ZM17.8555 7.29183C18.2687 7.29183 18.615 7.15207 18.8945 6.87256C19.174 6.59304 19.3138 6.24669 19.3138 5.8335C19.3138 5.4203 19.174 5.07395 18.8945 4.79443C18.615 4.51492 18.2687 4.37516 17.8555 4.37516C17.4423 4.37516 17.0959 4.51492 16.8164 4.79443C16.5369 5.07395 16.3971 5.4203 16.3971 5.8335C16.3971 6.24669 16.5369 6.59304 16.8164 6.87256C17.0959 7.15207 17.4423 7.29183 17.8555 7.29183Z" fill="#1081FB"/>
</g>
</g>
</svg>
