<svg width="36" height="35" viewBox="0 0 36 35" fill="none" xmlns="http://www.w3.org/2000/svg">
<g id="inventory">
<mask id="mask0_1931_13402" style="mask-type:alpha" maskUnits="userSpaceOnUse" x="0" y="0" width="36" height="35">
<rect id="Bounding box" x="0.380371" width="35" height="35" fill="#D9D9D9"/>
</mask>
<g mask="url(#mask0_1931_13402)">
<path id="inventory_2" d="M16.422 30.6252H7.67204C6.86995 30.6252 6.18332 30.3396 5.61214 29.7684C5.04096 29.1972 4.75537 28.5106 4.75537 27.7085V7.29183C4.75537 6.48975 5.04096 5.80311 5.61214 5.23193C6.18332 4.66075 6.86995 4.37516 7.67204 4.37516H13.7606C14.0279 3.52447 14.5505 2.82568 15.3283 2.27881C16.1061 1.73193 16.9568 1.4585 17.8804 1.4585C18.8526 1.4585 19.7215 1.73193 20.4871 2.27881C21.2528 2.82568 21.7693 3.52447 22.0366 4.37516H28.0887C28.8908 4.37516 29.5774 4.66075 30.1486 5.23193C30.7198 5.80311 31.0054 6.48975 31.0054 7.29183V14.5835H28.0887V7.29183H25.172V11.6668H10.5887V7.29183H7.67204V27.7085H16.422V30.6252ZM22.9845 29.0575L16.7866 22.8595L18.8283 20.8179L22.9845 24.9741L31.2241 16.7345L33.2658 18.7762L22.9845 29.0575ZM17.8804 7.29183C18.2936 7.29183 18.6399 7.15207 18.9194 6.87256C19.1989 6.59304 19.3387 6.24669 19.3387 5.8335C19.3387 5.4203 19.1989 5.07395 18.9194 4.79443C18.6399 4.51492 18.2936 4.37516 17.8804 4.37516C17.4672 4.37516 17.1208 4.51492 16.8413 4.79443C16.5618 5.07395 16.422 5.4203 16.422 5.8335C16.422 6.24669 16.5618 6.59304 16.8413 6.87256C17.1208 7.15207 17.4672 7.29183 17.8804 7.29183Z" fill="#758CA6"/>
</g>
</g>
</svg>
