<svg width="25" height="25" viewBox="0 0 25 25" fill="none" xmlns="http://www.w3.org/2000/svg">
<g id="save">
<mask id="mask0_1931_13295" style="mask-type:alpha" maskUnits="userSpaceOnUse" x="0" y="0" width="25" height="25">
<rect id="Bounding box" x="0.380371" y="0.666504" width="24" height="24" fill="#D9D9D9"/>
</mask>
<g mask="url(#mask0_1931_13295)">
<path id="save_2" d="M21.3804 7.6665V19.6665C21.3804 20.2165 21.1845 20.6873 20.7929 21.079C20.4012 21.4707 19.9304 21.6665 19.3804 21.6665H5.38037C4.83037 21.6665 4.35954 21.4707 3.96787 21.079C3.5762 20.6873 3.38037 20.2165 3.38037 19.6665V5.6665C3.38037 5.1165 3.5762 4.64567 3.96787 4.254C4.35954 3.86234 4.83037 3.6665 5.38037 3.6665H17.3804L21.3804 7.6665ZM19.3804 8.5165L16.5304 5.6665H5.38037V19.6665H19.3804V8.5165ZM12.3804 18.6665C13.2137 18.6665 13.922 18.3748 14.5054 17.7915C15.0887 17.2082 15.3804 16.4998 15.3804 15.6665C15.3804 14.8332 15.0887 14.1248 14.5054 13.5415C13.922 12.9582 13.2137 12.6665 12.3804 12.6665C11.547 12.6665 10.8387 12.9582 10.2554 13.5415C9.67204 14.1248 9.38037 14.8332 9.38037 15.6665C9.38037 16.4998 9.67204 17.2082 10.2554 17.7915C10.8387 18.3748 11.547 18.6665 12.3804 18.6665ZM6.38037 10.6665H15.3804V6.6665H6.38037V10.6665Z" fill="#1081FB"/>
</g>
</g>
</svg>
