<?xml version="1.0" standalone="no"?>
<!DOCTYPE svg PUBLIC "-//W3C//DTD SVG 20010904//EN"
 "http://www.w3.org/TR/2001/REC-SVG-20010904/DTD/svg10.dtd">
<svg version="1.0" xmlns="http://www.w3.org/2000/svg"
 width="1000.000000pt" height="1000.000000pt" viewBox="0 0 1000.000000 1000.000000"
 preserveAspectRatio="xMidYMid meet">
<metadata>
Created by potrace 1.11, written by Peter Selinger 2001-2013
</metadata>
<g transform="translate(0.000000,1000.000000) scale(0.100000,-0.100000)"
fill="#000000" stroke="none">
<path d="M6249 9506 c-82 -23 -114 -43 -144 -93 -11 -17 -44 -70 -73 -117 -34
-55 -62 -117 -77 -172 -14 -47 -36 -106 -49 -132 -13 -26 -36 -87 -51 -137
-15 -49 -38 -111 -51 -136 -12 -25 -34 -87 -49 -138 -14 -50 -38 -117 -54
-149 -16 -31 -36 -84 -46 -117 -9 -33 -31 -94 -49 -135 -18 -41 -40 -106 -50
-144 -9 -37 -30 -94 -46 -127 -17 -32 -39 -93 -51 -136 -12 -43 -34 -104 -50
-135 -16 -31 -38 -92 -50 -135 -12 -43 -34 -104 -50 -135 -16 -31 -38 -91 -50
-134 -11 -42 -34 -106 -51 -143 -16 -36 -39 -100 -50 -141 -11 -41 -35 -104
-53 -140 -17 -36 -40 -96 -49 -134 -9 -37 -30 -93 -45 -125 -16 -31 -41 -96
-56 -146 -15 -49 -38 -111 -51 -136 -12 -25 -35 -88 -49 -139 -14 -51 -37
-114 -50 -139 -13 -26 -31 -73 -40 -104 -9 -31 -24 -61 -33 -66 -9 -4 -51 -11
-92 -14 -100 -7 -151 -29 -204 -88 -54 -60 -75 -104 -89 -185 -14 -83 1 -175
42 -254 28 -53 29 -59 13 -64 -26 -9 -121 10 -175 33 -53 23 -138 28 -184 10
-15 -6 -56 -31 -91 -57 -51 -39 -69 -60 -99 -120 -30 -60 -37 -84 -37 -135 0
-71 26 -142 81 -220 19 -27 32 -52 29 -55 -3 -3 -57 4 -119 16 -278 55 -406 1
-483 -204 -31 -83 -28 -121 20 -220 42 -86 80 -122 176 -168 86 -41 124 -70
117 -88 -3 -7 -32 -24 -66 -36 -46 -18 -78 -41 -129 -90 -78 -77 -92 -110 -92
-224 0 -139 37 -207 140 -258 25 -13 63 -35 86 -51 23 -15 67 -39 98 -53 54
-24 70 -43 44 -50 -147 -40 -202 -74 -259 -158 -62 -90 -79 -135 -79 -206 0
-73 13 -104 79 -181 36 -43 62 -62 121 -88 41 -18 95 -44 120 -57 25 -13 85
-36 135 -51 49 -15 110 -37 135 -50 25 -12 80 -32 123 -44 43 -12 108 -35 145
-52 37 -17 98 -40 137 -51 38 -11 101 -33 140 -50 128 -56 231 -32 336 79 75
80 93 127 94 248 0 111 -9 139 -72 209 -48 52 -33 63 50 37 154 -47 289 -49
382 -5 55 26 121 104 139 165 34 113 15 245 -48 334 -19 27 -33 52 -30 57 10
15 54 8 131 -23 142 -56 222 -50 330 27 75 54 105 91 128 163 23 70 17 176
-15 249 -32 75 -141 161 -250 197 -81 27 -138 62 -123 75 4 4 45 13 91 19 45
7 97 18 115 26 42 17 133 113 154 162 23 52 23 195 0 243 -35 72 -105 139
-191 182 -85 42 -129 75 -120 90 3 4 23 17 44 28 21 11 67 44 102 74 84 70
121 146 126 256 5 94 -20 166 -78 228 -52 55 -55 88 -14 158 13 23 33 77 45
120 12 44 36 111 54 149 18 39 40 98 49 131 9 34 29 91 46 126 17 35 42 104
56 153 14 49 37 111 51 139 14 27 36 88 50 135 14 47 35 106 49 132 13 26 33
83 45 126 12 43 34 104 50 135 16 31 38 91 50 133 11 42 34 104 50 138 16 35
41 103 55 152 14 48 36 109 49 134 14 25 36 86 50 134 14 49 36 110 50 137 14
27 34 84 46 127 12 43 34 103 50 134 15 31 40 98 54 149 14 51 39 118 54 149
15 31 35 84 45 118 9 34 32 95 50 135 18 40 40 104 50 142 9 37 27 89 41 115
44 88 58 155 53 265 -7 172 -58 248 -268 404 -9 7 -43 19 -76 28 -32 8 -63 19
-68 25 -6 5 -25 9 -42 9 -18 0 -36 5 -39 10 -12 19 -213 9 -296 -14z"/>
<path d="M3819 1926 c-31 -12 -79 -36 -106 -53 -58 -36 -284 -146 -363 -178
-100 -39 -242 -131 -307 -197 -82 -84 -140 -163 -159 -218 -9 -25 -21 -55 -26
-67 -14 -29 0 -298 18 -340 7 -18 30 -50 51 -71 21 -22 93 -98 161 -170 101
-106 130 -131 159 -137 20 -3 47 -13 60 -22 19 -13 41 -14 121 -8 81 6 106 12
152 37 30 17 64 36 75 42 31 17 101 74 177 146 61 57 76 79 129 188 43 91 62
144 70 196 13 85 2 768 -13 806 -5 14 -19 35 -30 48 -29 30 -95 29 -169 -2z"/>
</g>
</svg>
